<?xml version="1.0" encoding="utf-8"?>
<!-- Generator: Adobe Illustrator 25.2.1, SVG Export Plug-In . SVG Version: 6.00 Build 0)  -->
<svg version="1.1" id="Layer_1" xmlns="http://www.w3.org/2000/svg" xmlns:xlink="http://www.w3.org/1999/xlink" x="0px" y="0px"
	 viewBox="0 0 206.3 110.1" style="enable-background:new 0 0 206.3 110.1;" xml:space="preserve">
<style type="text/css">
	.st0{fill:#FFFFFF;}
	.st1{fill:#076E38;}
	.st2{fill:#63A87C;}
</style>
<g>
	<g>
		<g>
			<path class="st0" d="M106.3,59.6c0.5,0,0.9,0,1.4,0l17-28.9h-10.4l-10.4,19.6h-0.2l-2.5-19.6H91.2L96.6,60
				C99.8,59.8,103.1,59.6,106.3,59.6z"/>
			<path class="st0" d="M29.4,57c8.7-3.2,15.7-3.8,20.7-1.7l0.6-3.3H31.3l1.6-9.1h16.8l1.4-8H34.3l1.4-8.2h17.6l1.5-8.5H27.7
				l-7.5,42.5h0.9C23.3,59.5,26.2,58.2,29.4,57z"/>
			<path class="st0" d="M86.9,35.5c-0.4-1.1-0.9-2.1-1.7-2.9c-0.8-0.8-1.8-1.5-3-2c-1.2-0.5-2.6-0.7-4.3-0.7c-2.1,0-3.9,0.5-5.5,1.4
				c-1.6,1-2.9,2.2-3.8,3.7h-0.1c0.1-0.6,0.2-1.4,0.3-2.3c0.1-0.9,0.2-1.6,0.2-2h-9.2c-0.1,1-0.2,2-0.4,3.2
				c-0.2,1.2-0.4,2.2-0.5,2.9l-3.8,22c0.4,0.5,0.8,1.1,1.2,1.7h8.1l2.9-16.2c0.2-0.9,0.4-1.7,0.8-2.5c0.3-0.8,0.8-1.5,1.3-2.1
				s1.2-1.1,1.9-1.4c0.7-0.3,1.5-0.5,2.4-0.5c1.5,0,2.5,0.4,3.1,1.2c0.6,0.8,0.9,1.7,0.9,2.8c0,0.8-0.1,1.6-0.3,2.5l-2.8,16.2h9.6
				l3.2-18.4c0.1-0.5,0.2-1.1,0.2-1.6c0-0.5,0.1-1.1,0.1-1.6C87.5,37.8,87.3,36.6,86.9,35.5z"/>
		</g>
		<g>
			<path class="st1" d="M19.6,66.5c0,0,30.1,24.9,34.3,2.8C53.3,46.9,19.6,66.5,19.6,66.5z"/>
			<path class="st1" d="M91.8,83.1c-8.1-33.8-49.7,7.5-49.7,7.5S92.9,117.9,91.8,83.1z"/>
		</g>
		<g>
			<path class="st0" d="M49.7,88.7c0-0.1,0-0.1,0.1-0.2C49.8,88.6,49.7,88.6,49.7,88.7z"/>
			<path class="st0" d="M50.1,88.1c0,0-0.1,0.1-0.1,0.1C50,88.2,50,88.2,50.1,88.1z"/>
			<path class="st0" d="M49.6,88.9C49.6,89,49.6,89,49.6,88.9c0,0.1,0,0.1,0,0.2C49.6,89.1,49.6,89,49.6,88.9z"/>
			<path class="st0" d="M50,90.2c0,0,0.1,0.1,0.1,0.1C50.1,90.3,50,90.3,50,90.2z"/>
			<path class="st0" d="M49.6,89.4c0,0.1,0,0.1,0,0.2C49.6,89.5,49.6,89.5,49.6,89.4z"/>
			<path class="st0" d="M49.8,90c0-0.1-0.1-0.1-0.1-0.2C49.8,89.9,49.8,90,49.8,90z"/>
		</g>
		<g>
			<path class="st2" d="M180.1,30.7l-9.9,19.6h-0.1l-3-19.6h-10.5l6.9,29.8l-1.4,2.5c-0.7,1.3-1.5,2.3-2.2,3c-0.8,0.7-1.9,1-3.3,1
				c-1,0-13.9-2.3-13.9-2.3c-2-0.4-4-0.6-6-0.9l-6-0.7c-8-0.9-16.1-1.4-24.3-1.5c-8.1,0.1-16.3,0.4-24.4,2c-2,0.5-4,0.9-6,1.5
				c-2,0.6-4,1.2-5.9,2.1c-1,0.4-1.9,0.8-2.9,1.3c-0.9,0.5-1.9,1-2.7,1.6L64,70.3c-2.4-2.1-6.1-2.9-7.2-3.1c-0.7-5.8-3.6-8.6-6-10
				c-10.6-5.9-30.4,5.4-32.7,6.7c0,0-0.1,0.1-0.1,0.1c-0.6,0.4-1,0.9-1.2,1.6c-0.4,1.2,0,2.5,0.9,3.3c1.7,1.4,15.6,12.6,26.7,12.6
				c1.6,0,3.1-0.2,4.5-0.7c2.9-1,6.5-3.7,7.9-10.4c1.3,0.3,3.4,0.9,4.8,1.9c-0.3,0.3-0.7,0.7-1,1c-0.2,0.2-0.4,0.4-0.6,0.7
				c-0.2,0.2-0.4,0.4-0.6,0.8c-0.3,0.6-0.3,1.3,0.2,1.8c0.6,0.6,1.5,0.6,2.1,0l0.2-0.2l0.4-0.4c0.1-0.1,0.3-0.3,0.5-0.4
				c0.3-0.3,0.7-0.6,1.1-0.8l1.1-0.8l1.2-0.7c0.8-0.5,1.7-0.8,2.6-1.2c0.8-0.4,1.8-0.7,2.7-1c1.8-0.6,3.7-1,5.5-1.5
				c1.9-0.4,3.8-0.7,5.7-1c4.2-0.6,8.5-0.8,12.7-0.9c-1.5,10.1-5.6,13.5-7.6,14.5c-1.4-4.3-3.9-7.1-7.5-8.1
				c-11.5-3.4-29.5,13.3-30.3,14c-0.5,0.4-0.6,1.1-0.4,1.7c0.1,0.3,0.4,0.6,0.6,0.7c0,0,0,0,0,0c0,0,0,0,0.1,0.1
				c0.7,0.4,14.1,7.1,24.8,7.1c3.1,0,6-0.6,8.2-2c3.2-2,4.8-5.5,4.9-10.3c2.6-1,8.3-4.6,10.2-17.6c2.5,0,5.1,0.1,7.6,0.2
				c7.9,0.5,15.7,1.3,23.5,2.5l5.9,0.9c2,0.3,3.9,0.6,5.8,1c0,0,13.9,2.7,15.8,2.7c1.8,0,3.3-0.2,4.6-0.7c1.3-0.4,2.5-1.1,3.5-1.9
				c1-0.8,2-1.9,2.8-3.1c0.9-1.2,1.7-2.6,2.6-4.2l19.6-34.4H180.1z M53.5,66.1C53.5,66.1,53.6,66.1,53.5,66.1
				c-3.2-0.8-12.6-2.8-27.7-2.7C34.9,59.2,50.9,53.9,53.5,66.1z M19.6,66.5c22.3-1,34.3,2.8,34.3,2.8C49.7,91.4,19.6,66.5,19.6,66.5
				z M56,67.2c0,0-0.1-0.1-0.2-0.1C55.9,67.1,56,67.2,56,67.2C56,67.2,56,67.2,56,67.2z M77,76.7c0.9,0,1.7,0.1,2.5,0.3
				c2.6,0.8,4.4,2.8,5.5,6.2c-3.4,1.1-13.6,3.8-29.8,4.4C60.9,83.1,70.2,76.7,77,76.7z M85.3,86.3c-0.2,3.2-1.4,5.5-3.5,6.8
				c-5.4,3.5-16.5,0.4-24.1-2.6c0,0,0,0,0,0C72.1,89.8,81.4,87.4,85.3,86.3C85.3,86.3,85.3,86.3,85.3,86.3z"/>
			<path class="st2" d="M126.6,57.9c1.3,1.1,2.9,2,4.8,2.6s3.9,0.9,6,0.9c2.9,0,5.4-0.5,7.7-1.5c2.3-1,4.2-2.3,5.8-4
				c1.6-1.7,2.8-3.6,3.7-5.9c0.8-2.2,1.3-4.6,1.3-7.1c0-2-0.4-3.9-1.2-5.5c-0.8-1.6-1.9-3-3.2-4.1c-1.4-1.1-3-2-4.9-2.6
				c-1.9-0.6-3.9-0.9-6.1-0.9c-2.8,0-5.4,0.5-7.6,1.5c-2.2,1-4.1,2.3-5.7,4c-1.6,1.7-2.8,3.6-3.6,5.9c-0.8,2.2-1.3,4.6-1.3,7.1
				c0,2,0.4,3.9,1.2,5.5C124.2,55.4,125.3,56.8,126.6,57.9z M132.3,43.6c0.4-1.2,1-2.2,1.7-3.1c0.7-0.9,1.6-1.6,2.6-2.1
				c1-0.5,2.2-0.8,3.5-0.8c2,0,3.5,0.6,4.6,1.8c1.1,1.2,1.6,2.7,1.6,4.5c0,1.3-0.2,2.5-0.6,3.7c-0.4,1.2-1,2.2-1.7,3.1
				c-0.7,0.9-1.6,1.6-2.7,2.1c-1,0.5-2.2,0.8-3.5,0.8c-2,0-3.5-0.6-4.6-1.8c-1.1-1.2-1.6-2.7-1.6-4.5
				C131.7,46,131.9,44.8,132.3,43.6z"/>
		</g>
	</g>
</g>
</svg>
