<?xml version="1.0" encoding="utf-8"?>
<!-- Generator: Adobe Illustrator 25.2.1, SVG Export Plug-In . SVG Version: 6.00 Build 0)  -->
<svg version="1.1" baseProfile="tiny" id="Layer_1" xmlns="http://www.w3.org/2000/svg" xmlns:xlink="http://www.w3.org/1999/xlink"
	 x="0px" y="0px" viewBox="0 0 217.78 117.47" overflow="visible" xml:space="preserve">
<g>
	<g>
		<path fill="#FFFFFF" d="M15.61,77.84c0.01-0.03,0-0.06,0.01-0.09C15.62,77.79,15.62,77.81,15.61,77.84z"/>
		<g>
			<path fill="#086D38" d="M115.1,66.53c0.46,0,0.92,0.01,1.39,0.01l17.05-28.87H123.1l-10.38,19.62h-0.18l-2.46-19.62H99.94
				l5.41,29.28C108.6,66.73,111.86,66.61,115.1,66.53z"/>
			<path fill="#086D38" d="M38.14,63.98c8.75-3.23,15.7-3.81,20.72-1.73l0.57-3.28H40.11l1.56-9.12h16.8l1.44-8.04h-16.8l1.44-8.22
				h17.64l1.5-8.52H36.51l-7.5,42.48h0.92C32.08,66.48,34.95,65.16,38.14,63.98z"/>
			<path fill="#086D38" d="M95.7,42.5c-0.36-1.1-0.93-2.07-1.71-2.91c-0.78-0.84-1.77-1.5-2.97-1.98c-1.2-0.48-2.64-0.72-4.32-0.72
				c-2.08,0-3.92,0.48-5.52,1.44c-1.6,0.96-2.88,2.18-3.84,3.66h-0.12c0.08-0.64,0.17-1.4,0.27-2.28c0.1-0.88,0.17-1.56,0.21-2.04
				h-9.18c-0.08,0.96-0.21,2.04-0.39,3.24c-0.18,1.2-0.35,2.18-0.51,2.94l-3.84,21.99c0.42,0.51,0.82,1.08,1.19,1.71h8.12
				l2.88-16.16c0.16-0.88,0.41-1.72,0.75-2.51c0.34-0.8,0.78-1.5,1.32-2.09s1.16-1.07,1.86-1.41c0.7-0.34,1.49-0.51,2.37-0.51
				c1.48,0,2.51,0.39,3.09,1.17c0.58,0.78,0.87,1.73,0.87,2.84c0,0.76-0.1,1.6-0.3,2.51L83.1,67.55h9.6l3.24-18.36
				c0.12-0.52,0.2-1.05,0.24-1.59c0.04-0.54,0.06-1.09,0.06-1.65C96.24,44.75,96.06,43.6,95.7,42.5z"/>
		</g>
		<g>
			<path fill="#086D38" d="M28.36,74.48c0,0,30.08,24.88,34.31,2.81C62.08,54.82,28.36,74.48,28.36,74.48z"/>
			<path fill="#086D38" d="M95.62,92.15c-5.79-22.85-35.75,5.05-35.75,5.05S96.39,115.71,95.62,92.15z"/>
		</g>
		<g>
			<path fill="#FFFFFF" d="M58.5,96.64c0.02-0.05,0.03-0.11,0.06-0.16C58.53,96.53,58.52,96.59,58.5,96.64z"/>
			<path fill="#FFFFFF" d="M58.84,96.12c-0.05,0.04-0.08,0.1-0.12,0.15C58.76,96.21,58.79,96.16,58.84,96.12z"/>
			<path fill="#FFFFFF" d="M58.4,96.92c0,0.01-0.01,0.02-0.01,0.04c-0.01,0.05,0,0.1,0,0.15C58.39,97.04,58.39,96.98,58.4,96.92z"/>
			<path fill="#FFFFFF" d="M58.76,98.2c0.04,0.05,0.09,0.09,0.14,0.13C58.86,98.29,58.81,98.25,58.76,98.2z"/>
			<path fill="#FFFFFF" d="M58.39,97.38c0.01,0.07,0.03,0.14,0.05,0.21C58.42,97.51,58.4,97.45,58.39,97.38z"/>
			<path fill="#FFFFFF" d="M58.62,98c-0.04-0.06-0.08-0.11-0.1-0.18C58.54,97.88,58.58,97.94,58.62,98z"/>
		</g>
		<g>
			<path fill="#63A87C" d="M188.84,37.67l-9.9,19.56l-0.12-1l-3-18.56h-10.5l6.9,29.76l-1.44,3.46c-0.72,1.28-1.47,2.27-2.25,2.97
				c-0.78,0.7-1.87,1.05-3.27,1.05c-1,0-13.91-2.29-13.91-2.29c-1.98-0.36-3.99-0.61-6-0.85l-6.02-0.72
				c-8.04-0.92-16.14-1.44-24.27-1.54c-8.14,0.09-16.32,0.39-24.42,1.98c-2.01,0.49-4.04,0.88-6.03,1.47
				c-1.99,0.63-3.98,1.2-5.89,2.11c-0.97,0.41-1.93,0.8-2.86,1.35c-0.93,0.52-1.88,0.96-2.75,1.62l-0.35,0.24
				c-2.37-2.12-6.14-2.88-7.23-3.06c-0.68-5.8-3.57-8.63-6-9.98c-10.55-5.88-30.43,5.36-32.67,6.66c-0.04,0.02-0.07,0.05-0.11,0.08
				c-0.56,0.36-1,0.9-1.22,1.56c-0.4,1.18-0.02,2.48,0.93,3.27c1.74,1.44,15.61,12.62,26.67,12.62c1.56,0,3.07-0.22,4.48-0.73
				c2.85-1.03,6.51-3.68,7.93-10.41c1.29,0.27,3.41,0.89,4.82,1.91c-0.35,0.3-0.68,0.65-1,0.99c-0.19,0.2-0.38,0.41-0.56,0.66
				c-0.18,0.24-0.36,0.45-0.57,0.81c-0.34,0.56-0.27,1.3,0.21,1.79c0.57,0.58,1.5,0.6,2.09,0.03l0.25-0.24l0.37-0.36
				c0.13-0.14,0.29-0.28,0.48-0.42c0.35-0.27,0.66-0.57,1.06-0.81l1.14-0.75l1.23-0.65c0.79-0.46,1.69-0.8,2.55-1.18
				c0.84-0.4,1.76-0.68,2.67-0.97c1.78-0.65,3.69-1.01,5.54-1.5c1.87-0.42,3.81-0.66,5.7-1c4.21-0.56,8.47-0.81,12.74-0.88
				c-1.52,10.15-5.58,13.48-7.62,14.52c-1.44-4.33-3.94-7.06-7.46-8.1c-11.48-3.38-29.54,13.28-30.3,13.99
				c-0.45,0.42-0.6,1.08-0.37,1.66c0.13,0.32,0.36,0.56,0.64,0.73c0,0,0,0,0,0c0.03,0.01,0.04,0.04,0.07,0.05
				c0.72,0.37,14.08,7.06,24.75,7.06c3.1,0,5.97-0.56,8.24-2.01c3.2-2.04,4.84-5.51,4.93-10.31c2.61-0.99,8.35-4.64,10.16-17.6
				c2.54,0.01,5.08,0.07,7.62,0.17c7.85,0.5,15.7,1.26,23.51,2.46l5.86,0.93c1.95,0.29,3.91,0.58,5.85,0.99
				c0,0,13.94,2.74,15.83,2.74c1.76,0,3.3-0.22,4.62-0.66c1.32-0.44,2.49-1.08,3.51-1.92c1.02-0.84,1.96-1.88,2.82-3.12
				c0.86-1.24,1.73-2.64,2.61-4.2l19.56-35.38H188.84z M62.3,74.07c0.01,0,0.02,0.01,0.04,0.01c-3.21-0.83-12.66-2.85-27.77-2.76
				C43.63,67.19,59.67,61.83,62.3,74.07z M28.36,74.48c22.29-0.96,34.31,2.81,34.31,2.81C58.44,99.36,28.36,74.48,28.36,74.48z
				 M64.79,75.18c-0.05-0.05-0.1-0.1-0.15-0.14C64.69,75.09,64.75,75.13,64.79,75.18C64.8,75.18,64.79,75.18,64.79,75.18z
				 M85.81,84.66c0.88,0,1.71,0.11,2.49,0.33c2.56,0.75,4.36,2.78,5.48,6.19c-3.44,1.06-13.6,3.76-29.75,4.41
				C69.63,91.02,79.01,84.66,85.81,84.66z M94.08,94.23c-0.24,3.22-1.39,5.47-3.51,6.82c-5.45,3.47-16.5,0.41-24.11-2.58
				c0,0,0,0,0,0C80.9,97.72,90.19,95.4,94.08,94.23C94.08,94.23,94.08,94.23,94.08,94.23z"/>
			<path fill="#63A87C" d="M135.39,64.88c1.34,1.14,2.94,2.01,4.8,2.61s3.87,0.9,6.03,0.9c2.88,0,5.45-0.49,7.71-1.47
				c2.26-0.98,4.19-2.31,5.79-3.99c1.6-1.68,2.82-3.64,3.66-5.88c0.84-2.24,1.26-4.62,1.26-7.14c0-2.04-0.39-3.87-1.17-5.49
				c-0.78-1.62-1.85-3-3.21-4.14c-1.36-1.14-2.98-2.01-4.86-2.61c-1.88-0.6-3.92-0.9-6.12-0.9c-2.84,0-5.38,0.5-7.62,1.5
				c-2.24,1-4.15,2.34-5.73,4.02c-1.58,1.68-2.79,3.64-3.63,5.88c-0.84,2.24-1.26,4.6-1.26,7.08c0,2.04,0.39,3.87,1.17,5.49
				C132.99,62.36,134.05,63.74,135.39,64.88z M141.06,50.57c0.4-1.16,0.96-2.18,1.68-3.06c0.72-0.88,1.6-1.58,2.64-2.1
				c1.04-0.52,2.2-0.78,3.48-0.78c2,0,3.55,0.6,4.65,1.8c1.1,1.2,1.65,2.7,1.65,4.5c0,1.28-0.2,2.5-0.6,3.66
				c-0.4,1.16-0.97,2.18-1.71,3.06c-0.74,0.88-1.63,1.57-2.67,2.07c-1.04,0.5-2.2,0.75-3.48,0.75c-2,0-3.54-0.59-4.62-1.77
				c-1.08-1.18-1.62-2.67-1.62-4.47C140.46,52.95,140.66,51.73,141.06,50.57z"/>
		</g>
	</g>
	<path fill="#FFFFFF" d="M15.61,78.84c0.01-0.03,0-0.06,0.01-0.09C15.62,78.79,15.62,78.81,15.61,78.84z"/>
</g>
</svg>
