<?xml version="1.0" encoding="utf-8"?>
<!-- Generator: Adobe Illustrator 25.2.1, SVG Export Plug-In . SVG Version: 6.00 Build 0)  -->
<svg version="1.1" id="Layer_1" xmlns:svg="http://www.w3.org/2000/svg"
	 xmlns="http://www.w3.org/2000/svg" xmlns:xlink="http://www.w3.org/1999/xlink" x="0px" y="0px" viewBox="0 0 144 144"
	 style="enable-background:new 0 0 144 144;" xml:space="preserve">
<style type="text/css">
	.st0{fill:#C6E0CC;}
	.st1{fill:#076E38;}
</style>
<g id="layer8_1_">
	<g id="path125302_1_">
		<circle class="st0" cx="72" cy="72" r="69"/>
		<path class="st1" d="M72,6c36.4,0,66,29.6,66,66s-29.6,66-66,66S6,108.4,6,72S35.6,6,72,6 M72,0C32.2,0,0,32.2,0,72s32.2,72,72,72
			c39.8,0,72-32.2,72-72S111.8,0,72,0L72,0z"/>
	</g>
</g>
<g id="layer1_1_">
	<path id="polygon0_1_" class="st1" d="M55.4,7.8l2-0.5l0.9-0.5l1.2-0.3l-0.2-0.2l-0.7,0l0.1-0.2L59.9,6l0.5,0.1l0.2-0.2l1.9-0.5
		l0.3-0.3l1.6,0.5l1.2-0.2l1.3-0.3l1.7,0.2l-0.4,0.2l0.7,0.1l0.5,0l0.6-0.4l0,0.3l-0.2-0.2l-0.3,0.2l1-0.1l-1,0.1l2.3,0.1l-0.2-0.1
		l0.8-0.2l-0.4,0l0.3-0.2L72,5l0.8,0.1l0.1-0.2l0.7,0.3l0.9,0l0.3,0.3l0.9-0.5l0.8,0.7l-0.5,0l0.3,0.2l-0.4,0L76,6.1l0.9,0.2
		l0.5,0.4l0.9-0.3l1,0.3l0.4,0.2l-0.3,0.1l1,0.4l1,0l-0.2,0.4l0.3-0.1l0,0.2l0.5,0.1l0.3-0.1l-0.4-0.1l1.7,0.4l0.6,0L83,8.1l-2.9,0
		l0,0.4L80,8.2l-0.3,0.1L80,9l1.3,0.3l-0.5,0.1l0.7,0.4l-0.7-0.1l0.2,0.4l1.1,0l0.5-0.2l0.5,0.3l0.1-0.3l0.1,0.2l1.1,0.3l-0.3,0
		l0.6,0.4l0.3,0l-0.3-0.2l2.2,0.9l0.5-0.1l0,0.2l0.7-0.4l1.6,1.2l1.1-0.2l0.2-0.7l1.9-0.2l-0.2,0.3l-0.9,0l0.6,0.2l-1.4-0.2l0.4,0.4
		l-0.1,0.7l0.4,0.2l0.3-0.1l0.3,0.5l0.6-0.6l0.2,0.6l-1.6,0.3l0.7-0.1l1.2,0.5l0.7-0.3l1.6,0.2l-0.5-0.6l0-0.4l0.6-0.1l0.7,0.2
		l0-0.3l0.1,0.5l-1.1,0.1l0.6,0.5l1.1,0l2.1,0.9l0.1,0.9l-0.8-0.8l-2-0.6l-0.4,0.3L93.8,14l-0.5,0.2L91.7,14l-0.1,0.3l0.2,0.5
		l1.7,0.3l0.7,0.4l1.8,0.1l-0.1-0.3l0.5-0.3l1,0.4L96.7,16l0-0.2l-0.3,1.3l0.4,0.2l0.8-0.1l0.2,0.4l0.5,0.1l-0.7,0.1l0.6,0.6
		l0.1,0.6l0.5,0.3l0,0.5L98,19.5l-0.2-0.3l0,0.2l0.8,0.7L98.3,20l0.8,1.3l0.4,0l0,0.4l0.8,0.4l0,0.5l-0.7,0.1l-0.4-0.7l-0.4-0.1
		L98,22.6l0.5-0.1l2.7,1.1l-0.8,0.3l0.5,0.7l0.5,0.6l1.1,0.3L102,26l0.2,0.3L102,26l-0.5,0.3l0.4,0.4l0.6-0.3L103,27l-1.1,0.5
		l-1-0.3l-0.5-0.5L99.7,27l-0.1-0.3l-1.1,0.1l2.1-1.7l-1-1.2l-1.3,0l-1.7,0.7L96.4,25l0.4,0.4L96.3,25l-0.2,0.4l-0.4-0.2l0.2-0.3
		l-0.4,0.2l0.3,0.4l-0.5,0.1l0.1,0.3l-0.7-0.1l0.4-0.4l-0.2-0.4L94,25.3l0.3,0.6l-0.5-0.5l-0.3,0.1l0.6,0.5l0,0.2l-0.6-0.4l0.7,0.9
		l-0.7-0.7l-0.3,0.2l0.9,0.9l-0.7,0.2l0.7,0.3l-0.5,0l0.5,0.8L93.4,28l0.4,0.6l-0.4-0.3l0,0.3l0.6,0.1l-0.6,0.2l0.7,0.7L94,30
		l0.5-0.3l-0.4,0.4l0.6,0.4l-0.6-0.2l0,0.3l0.3,0l-0.2,0.3l0.6,0l-0.1,0.7l0.5-0.2L94.7,32l0.3,0l0.3,0.8l0.2-0.4L95.2,33l0.4,0.1
		l-0.3,0.1l0.4,0.8l0.2-0.3l-0.2,0.8l0.2-0.3l0,0.4l0.4,0.1l-0.1,0.3L96,34.7l0.3,1.2l0.4-0.2L96.6,35l0.4,0.7l-0.3,0.4l-0.3-0.2
		l-0.2,0.5l0.5,0.5L96.3,37l0.5,0.1l-0.8,0.2l0.7-0.1L96,37.8l0.8,0.2l-0.4-0.1l0.1,0.3l-0.3,0.1l0.3,0l-0.6,0.2l0.3,0.3l0.7-0.4
		l-0.7,0.4l0.2,0.3l0.5-0.1l-0.3,0.3l0.3-0.1l0,0.4l0.5-0.4l-0.1-0.3l0.4,0.1l-0.2-0.4l0.3,0.2l0.1,0.5L97.2,39l-0.6,0.6l0.4,0
		l-0.2,0.2l0.4,0.2l0.1-0.3l0,0.5l0.3,0.2L97.5,40l0.3,0.6l0.2-1.1L97.9,41l0.4,0.1l0.2-0.6l0.1,0.7l0.4-0.2l0,0.3l-0.5,0l0.4,0.4
		l1.1,0.1l0.4-0.5l-0.3-1.4l0.4-0.2L100,39l1.5,1.3l0.1-0.2l0.4,0.5l-0.2-0.5l0.4,0.7l1.5,0.6l0,0.4l0.9,0.7l0.6-0.5l-0.5-0.9
		l0.5-0.3l-0.9-1.6l-1-0.8l0.2-0.2l-0.4,0.1l0.3-0.6l-0.3-0.4l0.4,0.2l-0.2-0.7l-0.3,0.1l0-0.6L102,36l-0.3,0.2l-2-2.1l0.4,0.1
		l-0.3-1.6l-0.4-0.8l-1-0.6l0.3,0L98,30.7l0.4,0l-0.3-0.3l0.5-0.5l1.1,0.3l1.2,3.1l1.5,0.8l0.8,0.8l0.7-0.1l0-0.3l0.5,0.5l0.5-2.8
		l0.4,0.3l0.8-0.4l-0.3,1l0.3,0.4l-0.8,0.6l-0.2,1.2l0.9,0.6l0.3-0.3l1,0.9l0,0.5l-1.1-0.3l-0.1,0.5l0.7,1.2l1.5,1.3l-0.3,0.3
		l-0.5-0.9l0.4,0.8l-0.1,0.4l0.2,0.3l0.2-0.2l0,0.8l-0.2-0.6l-0.1,0.7l-0.7-0.1l-0.6,2l0.3,0.5l-1.4-0.2l-0.6,1.3l-0.2-0.5l-0.4,0.4
		l-0.7-0.2l-0.6-0.9l0-1.2l-0.6,0l-0.6-1.2l-0.4,1.3l1.7,2.4l0.1-0.2l0.5,0.2l-0.1,0.3l1.2,0.3l-0.8,0.1l0.3,0.6l-0.5-0.2l-0.3,0.4
		l0.4,0.2l-0.9,0.4l-0.1,0.5l0.6,0.3l-0.1,0.5l-0.7-0.5l0.3,1.3l0.5,0l-0.6,0.6l0.6-0.1l-1.2,1.4l0.5,0.7l-0.5,1.5l-1.5,0.2l1,1
		l-0.8,0.6l-0.5-0.3l-0.9,1l0.6,0.1l-0.3,0.1l0.4,0.5l1.5-0.3l1,0.9l0.6,0l0.3,0.7l0.2,0.1l0.8,2.6l-4.1,1.8l-0.6-0.2l-0.9,1.4
		l0.9,0.6l0.8,2.7l0,1.8l0.4-0.4l0,0.8l0.5-0.2l-0.2,0.1l0.4,1.7l1.7-1l1.6,1.1l0.7-1.3l1.8-0.9l0.2-1.1l0.5-0.4l-0.2-0.9l0.4-0.8
		l-0.6-0.3l-0.3-0.7l0.2-1.9l1.1-1.9l-0.7-0.9l0-0.7l0.3-0.6l1.7-0.3l0.7-2.6l1.1-0.1l1.6,1.2l4.2,0.2l1.1,0.9l0.2,1.2l0.3-0.1
		l-0.3-1.2l0.2-0.5l-0.9-0.4l-0.2-0.9l0.6-0.4l0.6,0.2l-0.2-0.4l-2.2,0l-0.2-0.6l-0.8,0.5l-1.7-1l-1.1-0.1l-1-1.1l0.5-1l0.9,0.9
		l0-0.8l2,1.1l0.5-0.4l0.8,0.1l-0.5,0.2l1.2-0.4l0.9,0.2l0.8,1.5l1.7,0.7l0.1-0.3l0,0.4l0.5,0.3l1.1-1l0,0.4l-0.9,0.6l0.1,0.5l1,0.7
		l0.1-0.5l0.6,0.4l-0.2-0.5l0.5,0l-1-0.8l0.4-0.3l-0.5-0.1l0.1-0.5l0.5,0.1l-0.3-0.5l-1.2,0.2l0.1-0.5l-0.3-0.3l0.3-0.1l-1.3-0.8
		l0-0.4l0.9,0.1l-0.4-0.3l0.4-0.2l-0.7-0.2l0.4-1l0.9-0.6l0.2,0.9l-0.2-1.6l0.5-0.9l-1.5-0.6l-0.1,0.3l-0.4-1.7l-1.1-1.5l0.3,0.2
		l0.1-0.5l-0.8-0.9l0.2,0.1l-0.1-0.5l0.1,0.5l-0.2-0.8l-0.4-0.1l0.4,0.1l-0.3-0.6l0-0.9l0.5,0.1l-0.3,0.4l0.3-0.2l0.1,0.3l0.6-0.9
		l0.3,0.2l0.1,1l0.1-0.4l0.8,0.6l0.3-0.2l-0.2-2.3L121,41l-0.9-0.3L121,41l-0.2,0.2l-0.6-0.2l-0.4-0.9l0.4,0.5l-0.3-1l0.1-2.3
		l0.4,0.8l-0.2,0.5l0.8,0l-0.3,0l0.6,1.1l0,0.7l2.9-0.8l0.8,0.5l0.3,0.6l0.2,1.1l-0.3,1.1l-0.7,0.9l-1,0.1l-0.4,1l0.1,2l-0.8,1.1
		l0.4,0.3l0.3-0.3l-0.3,0.6l0.2,0.3l-0.8,1.2l0.1,0.8l0.3,0.5l0.3-0.6l0.6,1l0.3-0.1l-0.1,0.4l-0.4-0.2l0.2,0.5l0.6-0.3l0.1,0.5
		l0.5,0l0,0.5l0.3-0.7l-0.1,0.9l0.2-0.8l1,0l0.2-0.5l-0.4-0.8l0.2-0.3l1.1-0.2l0.2-0.9l-0.2-0.9l0.4-0.2l0-0.8l0.8,1.4l0.8,0.8
		l1.6,4.1l-0.5,1.7l-0.4-0.3l-0.3,0.5l-0.2,2l-1.2,0.7l-0.8,1l-0.4-0.3l-0.9,0.8l-0.4-0.4l-0.9,0.5l-0.4,1.7l0.7,1.4l-0.3,1.2l-1,0
		l-1.5,0.7l-0.9-0.7l-1.4,0.5l-0.7,0.7l-1.9,0.1l-0.3-0.3l0.2-1.7l-1-0.6l-0.2-1.3l-0.2,0.7l-0.8-0.3l-0.9,1.4l-1.1,0.4l-0.5,1
		l-1.2,0.3l-1.9,1.7l-0.5,1.2l-0.7,0.5l-0.5,1.2l-0.7,0.3l-0.3-0.3l-1.3,0.9l-1-0.5l-0.3,0.3l0,2.4l-1.7,2.6l-0.1,1.6l0.6,1.5
		l-0.3,1.1l-1,1.6l-1.3,0.9l-0.4,1.8l-0.7,0.8L99.7,87l-0.9,1.4l0.2-0.3l-0.9,2.9l0,1.2l0.2-0.4l0.9,0.9L99,93.8l0.8,1.7L99.6,98
		l-0.9,1.4l1.2,0.7l0.1,0.6l1-0.5l-0.8,0.5l-0.4-0.1l0,1l0.6-0.2l-0.6,0.4l0.9-0.2l-0.4,0.4l0.6,0l-0.1,0.3l1.1-0.6l-0.6,0.4l0.5,0
		l-0.5,0.5l0.3,0.3l0.2-0.3l-0.1,0.3l0.4-0.3l0.4,0.9l1.1,0.1l-0.2,0.4l0.5,0l0.2,0.8l0.4-0.2l-0.5,0.3l1,0.4l0,0.4l1.5,0.1l2.8,1
		l1.3-0.1l1.4-1.2l2.1-1.2l2.1-0.5l3.1-3.1l2.2-1.8l-0.4,0.5l0.9-0.5l0.6,0.2l0.2-0.4l-0.2,0.4l0.4-0.2l-0.3,0.3l0.2,0.1l0.3-0.3
		l-0.2,0.6l0.6,0.5l0.6-0.4l0-0.3l0.1,0.2l-0.1-0.3l0.2,0.2l0-0.4l0.2,0.1l0.8-0.7l-0.1-0.4l0.3,0.3l0.2-0.4l0.4,0.6l0.4-0.5
		l0.1,0.2l-0.2,0.2l0.4,0.5l-0.4,2.3l0.3-0.1l0,0.6l-0.3,0.2l0.6-0.1l-0.4,0.4l-0.1-0.2l-0.2,1.2l-0.4,0.2l0.7,1.1l1.6,0.6l0.2,0.9
		l0.4-0.1l-0.3,0.4l0.6,1.3l-0.4,0.9l0.3,1.1l-0.4,1.2l-1.1,1.7l-1.2,2.4l-0.6,1.6l0.3,1.7l-1.3,2.3l-0.8,1.4l-0.4,0.4l-0.4,0.4
		l-0.5,0.5l0.3-0.3l0.3-0.3l1.9-2l1.1-1.2l1.5-1.7l2.6-3.4l1.5-2.1l0.9-1.4l1.4-2.2l-0.1,0.2l0,0l2-3.6l0.8-1.6l0.3-0.7l0.3-0.7l0,0
		l0.8-1.9l0.5-1.3l1.3-3.5l0.7-2.2l0.4-1.4l0.1-0.4l0.3-1.1l0.2-0.8l-0.1,0.1l0.2-1.3l0.1-0.6l-0.1,0.2l0.2-1l0-0.3l0.3-1.6l0.4-2.6
		l0.2-1.1l0-0.1l0.1-0.4l0.4-4.4l0.2-3.6l0-3.5l-0.7-7l-0.2-0.9l0-0.5l0,0.3l-0.3-1.5l0,0.2l0.2,1.7l0,1.7l0.1,1.2l-0.1,0.3l0,1.4
		l-0.5-0.1l-0.1,0.6l0-1.1l-0.1-0.4l-1-0.4l-0.3,0.4l-0.3-0.3l0.1,0.5l-1.3-2l-0.6,0.1l-1.1-2l0.1,0L137,61l-0.8,0l-0.5-0.8l0.1-0.2
		l-0.5-0.1l-2.3-2.1l-1-0.4l-0.6-0.8l1.1,0.8l0.8,0.1l-0.8-2.2l0.7,1.7l0.2-0.4l2.1,1.3l0.5,0.6l0.5-0.2l0.8,0.8l0.6,1.2l0.9,0.1
		l1.5,1.4l0.5,1.5l0.9,1.8l0.2-1.3l-0.1-1.1l0-3l-0.2-1.1l-0.4-3.1l-0.3-1l-0.4-2.5l-0.4-1l-0.2-0.8l-0.4-1.1l-0.3-1l-0.5-1.1
		l-0.2-0.6l0-0.1l-1.1-2.5l-0.4-0.3l0,0.8l-0.2-0.1l-0.6-0.7l-0.4-0.8l1.4,3.6l0.1,1l0.2,0.6l-0.2,0.3l-0.9-1.6l0,0.4l0.7,1.3
		l-0.7-0.5l-0.4-0.7l-0.6,0.1l-1.1-1l0,0.3l-0.1-0.5l-0.3-0.3l0.1-0.6l-0.2-0.3l0.3-0.1l-0.1-0.5l1.4,1l0.1-0.5l0.5-0.1l0-0.6
		l-0.6-1.9l0.7,0.7l-0.4-2.6l-1.6-3.8l0.3,0.5l-0.2-0.4l0.4,0.5l-0.3-0.6l0.2,0.4l-0.4-0.6l0.3,0.6l0,0l-0.6-1l0.3,0.5l0.6,1.1l0,0
		l-0.7-1.3l-0.6-1l-0.2-0.4l0.3,0.5l0.1,0.2l-0.2-0.3l0.3,0.5l0.1,0.2l0.5,0.9L136,39l1.2,2.5l0.7,1.5l0,0l-0.3-0.6l-0.3-0.7
		l-0.4-0.9l0,0l-0.5-1l-0.2-0.4l-0.6-1.1l-1-1.8l-0.7-1.3l-0.4-0.6l-0.3-0.5l-0.4-0.7l-0.6-0.9l-0.3-0.4l-1.5-2.2l-1-1.4l-1-1.2
		l-0.8-1l-0.3-0.4l-0.7-0.8l-0.4-0.5l0.3,0.3l-0.5-0.6l0.1,0.1l-0.3-0.3l0.1,0.1l-0.4-0.4l0,0l-0.4-0.5l0.2,0.2l-0.7-0.7l0.3,0.4
		l-0.2-0.2l-0.3-0.3l-0.4-0.4l1,1.1l-0.4-0.5l0.3,0.4l-0.2-0.3l0.2,0.2l0.3,0.3l0.1,0.1l-0.4-0.5l0.9,1l1.2,1.4l-0.4-0.4l0.4,0.5
		l-0.3-0.3l0.1,0.1l-0.3-0.4l0.1,0.1l-0.5-0.5l-0.4-0.5l-0.2-0.2l0.1,0.1l-0.4-0.5l-0.5-0.5l0.5,0.5l-0.2-0.2l1.1,1.3l0.7,0.9
		l-0.3-0.4l0.6,0.7l0.7,0.8l0,0l0.8,1.1l0.4,0.5l-0.3-0.4l1.5,2.1l-0.3-0.4l0.6,0.9l1.2,1.8l0.6,1l0.2,0.4l-0.4-0.6l0.1,0.1l-0.6-1
		l-1.1-1.6l-0.4-0.6l-0.4-0.6l0.2,0.3l-1.2-1.5l0.3,0.4l-0.7-0.9l-1.6-2l-0.7-0.9l-0.6-0.7l0.7,0.7l-0.4-0.5l0,0l0.7,0.8l-0.4-0.4
		l0.4,0.5l-0.2-0.3l0,0l1,1.1l-0.2-0.2l-0.8-0.9l-0.3-0.4l0.1,0.1l-0.3-0.4l0.1,0.1l-0.2-0.2l-0.1-0.1l0,0l-0.1-0.1l-0.2-0.2
		l-0.1-0.1l-1.4-1.5l-1.1-1.1l-0.1-0.1l-1.9-1.8l-0.5-0.4l0,0l-0.9-0.8l-0.9-0.8l-0.6-0.5l-0.4-0.3l-0.1-0.1l-0.2-0.2l-0.3-0.3
		l-0.6-0.5L116,15l-0.3-0.3l0.1,0.1l-0.5-0.4l0.1,0L116,15l0.5,0.4l-0.2-0.1l-1-0.8l0.2,0.1l-0.9-0.6l-0.3-0.2l-0.2-0.2l-0.3-0.2
		l-0.1-0.1l-0.6-0.4l0.3,0.2l-0.3-0.2l0,0l-0.7-0.5l0.3,0.2l-0.2-0.1l-0.5-0.4l0.2,0.1l-0.5-0.4l0.1,0.1l-0.7-0.4l-0.4-0.3l-0.1,0
		l-0.5-0.3l-0.4-0.2l0.1,0.1l-0.8-0.5l-0.1,0l-0.4-0.3l-0.3-0.2l-0.2-0.1l-0.3-0.2l-0.1-0.1l-0.5-0.3l0.1,0.1l-0.6-0.4L106,8.5
		l0.1,0.1L106,8.5l-0.2-0.1l-0.1-0.1l-1.6-0.8l-0.1,0l-0.7-0.3L103.1,7l-0.4-0.2l-0.1,0l-0.3-0.2l-0.4-0.2l0.4,0.2l-0.8-0.3l0,0
		l0.7,0.3l-1.6-0.7l-0.3-0.1l0.3,0.1l-0.8-0.3l-0.3-0.1l-1.3-0.5L98.5,5l-0.3-0.1l-1.5-0.6l-0.1,0l-0.3-0.1L95.7,4l-1.1-0.4
		l-0.2-0.1l-0.6-0.2l0.8,0.3l1.6,0.6L95.6,4l0.6,0.2L95.6,4l-0.9-0.3L92,2.8l-0.8-0.2l0.2,0.1L93,3.1L92.5,3l1.1,0.3L91,2.5l-1-0.3
		l1,0.3l-0.1,0l0.4,0.1L92,2.8l-0.3-0.1L92,2.8l-0.3-0.1l-0.2-0.1l-0.2-0.1l0.8,0.2l-0.1,0L92.5,3l0.2,0.1L92.4,3L93,3.1l-0.2-0.1
		l1.4,0.4l0.3,0.1l0.2,0.1l0.2,0.1l-0.8-0.3l0.3,0.1l-0.6-0.2L94,3.4l-0.4-0.1l-0.1,0L93,3.1l0,0l-1.3-0.4l-1.1-0.3l-1.2-0.3l0,0
		L88.8,2l-2.3-0.5l-1-0.2l-1-0.2L84.2,1L84,1l-1.1-0.2l0,0l-1.8-0.3L77,0.2L73.3,0l-1.7,0l-0.8,0.1l0.7,0l-0.4,0l-0.2,0l1.3,0.1
		l0.8,0l0.1,0l1,0l-0.3,0.1l0.7,0l-0.1,0.1l0.8,0l0.3,0.1l-2.2,0.1l-2.8,0.5l-2,0.1l-0.3,0l-0.3,0.1l-1.6,0.1l-0.2,0.1l-1.9,0.1
		l0.7-0.1l-0.2,0l-2.3,0.4l0.2,0l0.5-0.1l0,0.1l-1,0.6l-1.9,0.5l0.1-0.2l-0.1-0.1l-0.3,0.1l0-0.1L59,3.1l-0.5,0.1l0.4,0.2l-0.6,0.2
		l-0.5,0.1l0.5-0.2l-0.5-0.3l0.9-0.4L60,1.9l0.9-0.2l0.2-0.3L61,1.3l-2,0l-1,0.3l0.3,0l-1.1,0.3l0.4,0l-1.3,0.4l0.6,0.1l-0.8,0.2
		l0.9,0l-0.2,0.2l1-0.2L57.6,3l-0.4,0.2l-0.3,0l-0.5,0.4L56,3.5l-0.1,0.2l-1.1,0.4l-0.9,0.1l0.1,0.1l-0.8,0.8L52,6l-1.1,0.4L51,6.6
		l1.8-0.1l-0.2,0l0.7-0.1l0.4-0.3l0.1,0.1L54.3,6l-1.8,0.9l0.1,0.4l0.6,0.1l-0.3,0.2l-0.7-0.1l-0.7,0.5l-1,0.2l-1,0.4l0.1,0.1
		l-0.4,0L49,8.8l0.7-0.2l-0.2,0.3l0.4,0l0.5-0.2l-0.9,0.5l0.4-0.1l-0.5,0.2l0.2,0.3l1.4-0.4l0.8-0.4L52,8.5l-1,0l1.7-0.1L55.4,7.8
		L55.4,7.8 M46.4,139.3l0.3,0.1l0,0l1,0.4l0.2,0.1l-0.4-0.1l0.1,0l-0.4-0.2l0.9,0.3l0.2,0.1l1.2,0.4l0.6,0.2l-0.5-0.2l-0.5-0.2
		l0.5,0.2l-0.4-0.1l0.6,0.2l-0.4-0.1l0.4,0.1l0.3,0.1l0,0l1,0.3l-0.2-0.1l-0.9-0.3l-1-0.3l0.2,0.1l1,0.3l-0.3-0.2l0.6,0.1l-0.7-0.2
		l0.4,0.1l0.4,0.1l0.3,0.1l-0.3-0.2l-0.5-0.1l-0.6-0.2l-0.4-0.3l1.2,0.4l1.1,0.3l-0.4-0.4l0.3,0.1l-0.5-0.2l1.2,0.4l2.3,0.4l0.8,0.1
		l0.6-0.2l-0.2-0.2l-0.7-0.2l0-0.2l-1.5-0.6l-0.2-0.5l0.2,0.3l0.7,0.3l1.8,0.5l2,0.3l1.3-0.3l0.1-0.5l1.1-0.4l-0.3-0.2l0.8,0.3
		l-1.4,0.5l1.2-0.2l1-0.7l0.9-0.2l0.2-0.6l-0.5-0.5l0.5-0.3l-0.5-0.1l0.6,0.1l0.7-0.4l1.3-0.3l1.1,0l1.1-0.4l1,0.1l0.5-0.2l0,0.2
		l1.2,0l0.1-0.3l1.1-0.3l-0.1-0.3l1.5-1.2l0.1-0.8l0.7-0.5l0.4-3.5l0.2-0.2l0.3,0.3l0.5-0.3l3.9-3.6l0.2-1l-0.6-1.4l-0.4-0.3l-1.9,0
		l-1.7-1.1L72,121l-2.8,0l-1.5-0.5l-1.7,0.9l0.1-0.7l0.5-0.2l-0.8,0.1l0.6-0.3l-0.4-0.6l-0.5,0.4l-0.1-0.5l-0.2,0.2l0.1-0.2
		l-0.3,0.1l-0.4-0.4l-0.2,0.2l-0.1-0.4l-0.2,0.2l-1.2-0.6l-0.1,0.2l-0.9-0.2l-0.5,0.7l0.5,0.1l-0.5,0.1l-0.3-0.3l-1,0.8l0.2-0.6
		l-1.4,0.1l1.9-0.2l0.6-1.1l-2.4-0.4l-0.6,0.8l0-0.5l-0.5,0.4l-0.1-0.5l-0.5,0.4l0.5-0.8l1.7-1l-0.3,0l0.3-0.5l-1-0.5l-0.6-2.2
		l-0.3-0.2l-0.1,0.4l-0.8-1l-2.3-1.3l-3.6-0.6l-1.4-1.4l-0.4,0.4l0.3-0.9l-0.6-0.8l-1.3-1l-0.8-0.1l0.1-0.9l-0.9-0.7l-0.8-0.1
		l-0.6-0.8l1.2-0.1l-2.7-0.7l0.7,0.4l-1.6,0l-1.3-1l-2.1-0.5l-0.2-0.9l-1.3-0.8l-0.3-0.9l-0.3,0.5l0.5,0.1l0,0.3l-0.4-0.3l-1.6,0.2
		l0.5,1.4l-0.1,0.4l-0.7,0l-0.4-1l0.7-0.7l-0.3-1.1l1-0.2l-0.5-0.7l-1.8,0.6l-0.9-0.4L32.2,99l-0.6-0.4l-0.5,0.1l-0.5,0.5l0,0.8
		l-1.4,0.3l0.1,0.8l-1-1.8l-1-1l-0.6-0.4L25.2,98l-0.7-0.8l0.1,0.3l-0.4-0.3l-1.1-3.3l1.2-2.9l0-1.1L23,88.3l-2.7-1.4l-0.6-0.7
		l0.9-0.7l0.5-1.4l-0.2-0.2l0.4-0.3l0,0.8l0.8-1.3l-0.2-0.3l1.3-1.3l-1-1.1l-1.8-0.6l-0.9,1.6l-0.9,0.5L18,81.1l-1.7-0.6L16,79.3
		l-0.5-0.4l0-4.8l0.1-0.6l0.8-2l0.4-0.7l0.3,0.1L17,71.2l0.7-0.8l0.4-1.5l-0.2-0.2l0.2,0.2l0.5-0.8l0.6,0.2l0-0.5l0.4,0.5l-0.2,0
		l1,0l0.4-0.6l0.3,0.5l-0.3,0l0.8,0.2l0.1-0.3l-0.1,0.3l0.9,1l0.5-0.1l0.3,1.3l0.4-0.1l0.1,0.4l0.1-0.5l0.3,0.3l0,0.8l0.4-0.1
		l-0.3-0.8l0.5-0.1l-0.7-1l1.7,1.1l0.3-0.4l0,0.6l-0.3,0l0.9,0.1l-0.2,0.2l0.8,0.3l-0.3,0l0.7,0.6L27.5,73l1.1,0l0.3,0.5l0.4,1.7
		l-0.6,1l0.4,0.1l-0.4,0.4l0.1,0.8l0.3,0.1L28.9,79l0.5,0.7l-0.2,0.5l0.5,0.2l-0.1,0.2l1.1-1.8l0.4-5.7l1.2-0.7l0-0.4l0.1,0.4
		l2.2-0.9L37,71l-0.5-0.4l0.5-0.1l-0.3-0.5l0.6,0.5l0.5-0.2l0-0.5l-0.3,0.3l0.1-0.4l-0.6-0.2l0.6-0.2l0.2,0.4l0.2-0.8L38,70.3
		l0.1-1.5L37.5,68l0.4,0.4l-0.1-0.7l0.1,0.4l0.3-0.3l-0.3-0.7l0.3,0.7l0.2-0.3l-0.7-0.9l0.2-0.3l0.4,1.1l0.3-1.5l0.7,0l-0.7,0.6
		l0.2,1.3l-0.6,0.9l1.3-1.2l0.2-1.7l0.2,1.2l1-0.7l0.2-0.9l0.8-0.4l1.8,0.3l0.3-0.5l0,0.5l1.1,0.2l0.1-0.5l-0.4,0.3l-0.3-1l1.2-1.3
		l0.4,0.1l0.1-0.4l0.4,0.4l0.6-0.8l-0.2,0.4l0.6-0.2l0,0.4l1.1-0.3l0-0.5l0.5,0.4l2-0.5l-0.7,0.5l1.3,0.3l-0.7,0.3L51,62.4L49.4,63
		l-0.3,0.8l0.4,0.6l1.4-1.1l0.5,0.3l0.1-0.4l2.1,0l0.3-0.1l-0.6-0.9l-1.2-0.1l-0.9-1.1l0.2-0.9L51,60.1l0.8-0.7l-0.7,0l0-0.4
		l-0.7-0.3l1.2,0.3l0.9-0.3l0.1-0.9l-1.1-0.5l-1.7,0.2l-3,1.3l1.4-0.8l0.2-0.6l2.4-0.6l1.1-0.9l4.8,1.3l1.2-1l1.3,0.1l1.1-0.6
		l-0.3-0.5l0.5,0.1l-0.6-0.3l0.6,0.1l-0.2-0.3l0.4-0.6l-0.4-0.6L59.2,54l0.3-0.6l-0.6-0.5l-2.2,0.8l2-0.8l-0.9,0l1.7-0.3L59,52.3
		l0.2-0.2l-0.7,0l0.1-0.4l-0.3,0.2l0.2-0.3l-0.7,0.5l0.5-0.4l-0.4,0l0.2-0.2l-0.7,0.3l0.5-0.9L57.6,51l0.1-0.3l-0.7-0.4l0.4-0.2
		L57,50l0.3,0L57,49.7l0.4,0l-0.5-0.4l0.5,0.3l0.4-0.5l-0.6-0.6l0.5-0.1l-0.4-0.5l0.2-0.2l-0.6,0.1l0.7-0.4l-0.7,0l0.6-0.3l0-0.4
		l-0.6-0.1l0.5-0.1L57,45.2l0.3-0.2L57,44.8l-0.7,0.6l0.1,0.5l-0.5,0l0.1,0.3l-0.6,0.1L55.4,47l0-0.7l-1.2,0.7l0.1-0.7l-0.7,0.5
		l0.6-0.8l-1.1-0.4l0.4-0.2l0,0.3l0.4-0.5l-0.3-0.1l0.4-0.7L53.6,44l0.7,0.2l0.6-1.1l-0.4,0.2l-0.7-0.7l0.3-0.5l-0.4-0.1l-0.2-1.2
		l-0.6,0.2L51.8,40l-0.6,0.2L51.1,41l-0.9,0.6l0.4,0.1l-0.4,0.9l-1.6,1.1l0.4,1.1l-0.8,1.9L47,47.5l-1.6,0.1l0.1,0.7l-0.9,2.3
		l-0.7,0.3l-0.3,0.7l0-0.7l-0.6,0.4l-0.4-0.4l0.3-0.4l-0.2-1.9l1.5-2.3l-1.4-1l-1-3.9l-1.2-0.3l0.5-0.3l0.9-1.5l-0.4-0.4l-0.4,0.3
		l0.3-0.8l1.4-1.2l1.6-0.6l0.1-0.3l1.2,0l0-0.4l0.3,0.3l0.6-0.1l0.1-0.8l-0.4-0.1l0.3-0.1l-0.4-0.6l0.3-0.2l0.4,1.6l0.9-0.5l0.7,0.5
		l1.3-0.6l-0.7-1.7l0.4,0.2l0.3,1.2l1.2-0.4l0-0.6l0.7,1l0.1-1l0.5,0.3L52.2,35l1.7-0.6l0.3-1.2l0.6,0.1l-0.1-0.4l0.5-0.1l-0.4-0.7
		l0.4,0l-0.8-0.7l-0.7,1.2l-0.3-0.2l-1.5,1l-0.5,0l1.3-1.7l0-0.5l-1.2,0.7l0.7-1.2l0.4,0.2L52.1,30l0.7-0.3l0.2,0.2l1-2l-1.6,0.4
		l0.1,0.3l-0.9,0.5l0.3,1l-0.3-0.2l-0.6,0.4l0.5,0l-0.3,0.4l-1-0.1L49,31.4l0-0.5l1-0.5l-0.5,0l0.4-0.2l-0.1-0.4l-0.4-0.3L49,30.1
		l0.3,0.2l-0.4,0.3l0.3-0.8l-0.5,0.2l-0.8-0.9l0.3-0.7l-0.3-0.4l0.6-0.8L47.1,27l0.1,0.4l0.8,0.2l-1.3-0.1l-0.5,0.7l-0.3,0.2l0-0.3
		l-0.5,0.6l0.5-0.9l0.3,0l0.4-1.1L46,26.5l-0.3-1l0.4-0.3l0.4,0.3l0.4-0.6l-0.2-0.6l0.7-1.8L46.7,22l1-0.4l-1.1,0.1l1.4-1.2
		l-0.5,0.3l-1-0.7l1.1,0l-1-0.7l-0.1-0.3l0.6-0.2l-0.5-0.3l-0.7,0.4l2.3-2.6l1.3-2.1l0.4-0.4l0.3,0.1l0.2-0.5l0.5-0.2l-0.2-0.2
		l0.4,0.1l0.4-0.2l-0.3-0.3l0.3-0.4L51,12.3l0.4,0l0.1-0.4l-0.8-0.6l0.5-0.6l-0.3-0.2l-1.4,0.6l-0.6,0.1l-0.6,0.5l-0.5,0l-0.4,0.4
		l0.3-0.4l0.7-0.2L47,11.9l0.7-0.7l0.7-0.2l0.3-1l-1,0.5l0.2-0.2l-0.8,0.2L46,11.3l0.2,0l-0.4,0.1l0.2,0.3L45.6,12l-0.1-0.2
		l-0.8,0.3L44.5,12l0.4-0.4l-0.2-0.3l0.5-0.3l-1-0.5l-0.6,0.2L43.5,11l-0.1-0.1l-0.8,0.6l0.2-0.3l-0.8,0.2l-0.4,0.6l-1.2,0.4
		l-0.2-0.2l-0.2,0.6L39,13.3l0.6,0l-0.6,0.2l0,0.4l-0.4-0.1L37.6,14l-0.1-0.9L37,13.3l0.7-0.6l-0.3-0.4l0,0.1l-0.2,0.2l0.3-0.1
		l-0.4,0.3l0.3,0L37,13l-0.1,0.5l-0.3,0.1l0.8,1.1l-0.1,0.5l0.4,0.2l0.4-0.4l0.4-0.1l1.2,0.9l-0.1,0.5L39.4,16l-0.6,0.5l0.5-0.6
		l-0.1-0.3l-0.9,0L38.2,16l-0.5-0.2l0,0.7l0.3-0.1l-0.3,0.1l0.4-0.1l-0.4,0.4l0.4,0.1l0.5-0.4l0.3,0.2l-0.4,0.1l0.3,0.1l-0.3,0.1
		l0.1,0.3l-0.2-0.1l-0.2,0.3l0-0.2l0,0.2l-0.4,0.1l-0.2,0.4l-0.6,0.4l-0.3,1.1l-0.6,0.6l0.3,0.2l-0.3,0.3L36,20.7l0.5-0.2l-0.4,0
		l-1.7,1.8l0.1,0.2l0.8-0.7l-0.4,0.5l0.3-0.1l-0.8,0.4l-0.2,0.4l1.3-0.6L34.4,23l-0.2,0.4l0.3,0L34,23.5l-0.2,0.5l-0.1-0.2l-0.3,0.4
		l0.3-0.4l-0.4,0.4l-0.2-0.1L32,25.5l-0.7,0l0.5,0.3l-0.4,0.3l-1,0.5l0.6,0l0.6-0.2l-0.9,0.4L30.7,27l-0.3-0.2L30,27.2l0.4-0.4
		l-0.3,0.1l-0.1,0.5l-0.3-0.1L29,28.1l0.6-0.1l-0.5,0.2l0,0.3l0-0.4l-0.8,1l-0.5,0l0.2,0.1l-0.3,0.3l0.5,0.1l-0.9,0.1L27.2,30
		l0.2,0.1l-0.4,0l0.1,0.3l-0.2-0.2l0.1,0.5l-0.2-0.3l0,0.7L26.6,31l-0.1,0.3l0.3,0.2l-0.4-0.2l-0.2,0.4l0.3-0.1l-0.3,0.1l0,0.3
		l0.5-0.2l-0.6,0.3l0.2,0.3l-0.5,0.1l-0.2,0.5l0.4-0.1l-0.4,0.5l-0.2-0.1l0.2,0.3L25.1,34l-0.2,0.5l-1.1,1.1l-0.5,0l0.5-0.1l0.4-0.4
		l-0.6,0.1l0.8-0.4l0-1.2l-1.3,1.3l0.1,0.2l-0.7,0.4l0,0.4l-0.1-0.3l-3,2.2l-1.1,1.4l-0.9,0.6l-1.1,1.6l-0.6,1.2l0.1,0.4l-0.4,0.7
		l0.2-0.6l-0.5,0.6l-1.2,2.9l-0.4,0.5l0,1.8l-0.3,1.4l-1.8,4.4l-0.3,2.3l-0.4,0.4l0,0.5l-0.3-0.8l-0.1,1.9l0.3,0.1l-0.2,1.5
		l-0.6,1.3l0.1,2.5l-0.2,0.9l0.4,0.1l0.3-1.1l-0.2-0.9l0.8-2.6l0.2-2.1l0.3-0.8l0.4-2.7l1.1-2l0.1,1.9l-1,2.8l-0.2,1.7l0.2,0.5
		l-0.3,0.5l0,2l-0.4,0.4l0.3,1.5l-0.2,0.5l0.1,3.2l-0.2,2l-0.5,0.5l0.1,0.4l-0.3-0.1l-0.1,0.5l0.4,3.1l0.7,1.4l0.3,1.3l2.3,4.7
		l1.7,0.9l1.6,4.2l2.1,2.5l-0.2-0.3l1.1,0.6l0,0.6L20.1,90l1.4,3.1l-0.3,0l0.2,0.3l-0.2,0.9l0.4,0.7l0.3-0.1l-0.3-0.7l0.4,0.6
		l0.9,1.6l0,0.7l0.3,0.2l0-0.4l0.4,1l0.2-0.2l0.9,0.6l0.2,0.7l0.5,0l0.1,0.8l0.4,0.2l0.5-0.1l-0.4-1l1.4-0.1l0.6,1.1l0.4,0.1
		l-0.4,0.4l1,2l-0.4,2.3l0.5,0.5l-0.1,0.2L28,106l-0.8-0.2l0,0.7l-0.5-0.1l0.1,0.6l-1.1-0.3l0.1,0.7l-0.5,0.3l0.2,0.4l-0.6,0l0,1.2
		l0.6,0.7l0.3-0.3l0.2,0.4l-0.2,0.6l-1.1,0.2l0.5,1.5l-0.3,0.1l1.2,1.3l1.1,1.8l1.7,3.2l1.8,2.4l-0.1,0.3l0.6,0.8l0.9,0.9l4.1,2.9
		l1.4,1.3l0.5,1.1l0.4,1l-0.1,1.1l0.7,1.2l0,1.5l0.5,0.6l-0.2,0.2l1.2,1.4l0,0.8l-0.4-0.1l1.3,0.9l0.1,0.2l0.6,0.3l-0.1,0l0.5,0.2
		l0.3,0.2l0.1,0l-0.2-0.1l0.5,0.2l0,0l-0.4-0.2l0.4,0.2l-0.3-0.1l0.2,0.1l0.5,0.2l-0.3-0.1l0.7,0.3l-0.4-0.2l0.7,0.3l-0.5-0.2l0.1,0
		l0.3,0.1l0,0l-0.3-0.1l-0.4-0.2l0.3,0.1l-0.3-0.1l0,0l-0.2-0.1l-0.3-0.1l-0.2-0.1l0.5,0.2l-0.1,0l-0.4-0.2l0.3,0.1l-0.3-0.1
		l0.4,0.2l0.2,0.1l0.5,0.2l0.4,0.2l-0.3-0.1l0.5,0.2l-0.5-0.2l0.7,0.3l0.5,0.2l-0.4-0.1l0.3,0.1l-1-0.4l0.7,0.3l-0.3-0.1l0.3,0.1
		l-0.1,0l0.2,0.1l0.4,0.2l-0.5-0.2l0.5,0.2l-0.6-0.3l0.6,0.2l0.1,0l0.2,0.1l0.2,0.1l-0.6-0.2l0.5,0.2l-0.1,0l0.5,0.2l-0.1,0
		L46.4,139.3l-0.2-0.1l0.6,0.2l-0.6-0.2L46.4,139.3L46.4,139.3l0.5,0.2l-0.2-0.1l0,0l-0.1,0l0,0l-0.5-0.2l0.1,0.1l0.5,0.2
		L46.4,139.3L46.4,139.3 M69.1,47.3l0.4-0.4l0.6,0.4l-0.6-0.6l0.8,0l-0.4-0.3l0.5-0.3L69.8,46l0.6,0.1L70,45.8l0.5-0.2l-0.4-0.1
		l0.5-0.1l-0.4-0.1l0.5-0.3l-0.5-0.6l0.5,0.2l-0.6-0.4l0.8-0.1l-0.2-0.5l0.4,0.2l-0.3-0.5l0.4,0.2l-0.3-0.2l0.5-0.1l-0.4-0.3
		l0.6,0.2l0-0.5l-0.5-0.2l0.7-0.1l-0.4-0.9l0.5,0.2l0.2-0.7l0.9-0.1l0.1-0.9l0.4,0.1l-0.3,0.5l0.3,0.1l0-0.4l0.1,0.3l0.7-0.3
		l-0.2-0.4l0.6,0.1l0.6-1.6l0.5-0.3l-0.4-0.8l0.5,0.6l0.7-0.1l0-0.3l0.3,0.2l1.3-0.7l1.4-1.9L78.1,35l-0.7,0.6l-0.5-0.1l0.8-0.5
		l-1.1,0.2l0.4-0.8l0.5,0.2l0.4-0.4L76.6,34l0.4-0.2l-0.5-0.3l1.6,0.5l0.8,0.8l0.2-0.5l0.2,0.4l0.3-0.1l-0.5-0.5l0.1-0.5l-0.3,0.1
		l0.1-0.3l-0.4,0.2l0.1-0.4l-0.9-0.4l-0.2,0.4l0-0.3L77.1,33l0.6-0.2l-0.3-0.3L77,32.9l-0.4-0.3l0.8-0.4l-0.9,0.1l0.5-0.2l-0.4-0.2
		l0.5,0.2l0.4-0.4l-0.5-0.4l0.6,0.3l0-0.3l0.7,0.1l-0.7,0.1l0.7,0.3l0.6-0.4l-0.1-0.4L78.2,31l0.1,0.4L78,31.1l-0.1-0.6l0.9,0.2
		l0.1-0.3l-0.7,0l0-0.4l-0.6,0l0.6-0.1l-0.7-0.2l1,0.2l-0.2-0.6l-0.8-0.1l0.5-0.3l-0.6,0.1l-0.4-0.4l1.2-0.4l-0.3-0.5l-0.8,0
		l0.4-0.3l-0.5-0.2l-0.1,0.4l-0.1-0.4l0.1-1.9l-0.5,0.4l-0.2-0.3l0.7-0.6l-1,0.2l1.1-0.6l-0.1-0.8l-0.7,0l0,0.5l-0.5,0l-0.3,1.1
		l-0.2-1.5l-0.6,0.8l0.1-0.6L73,24l0.2-0.4l1.2-0.1l0.5-0.5L74,23l0-0.4l-1.5,0.6l0.3-0.4l1.1-0.3l-1.7,0L72,23.1l-0.7-0.5l-0.3,0.3
		l0.7,0.2l0,0.3L71,23.1l0.5,0.5l-0.4,0l0,0.5l-1-0.8l0,0.9l-0.5-0.4L69.3,24l0.2-0.7l-0.9,0.1l0.2,0.7l-0.2-0.6l-0.4,0l-0.4,0.7
		L67.6,24l-0.2,0.4l0-0.4l-1,0.5l-0.1,0.3l0.7,0.1l-1,0.8l-0.7-0.1L64,26l0.4,1l0.8,0.1L65,27.4l-0.7-0.3l0.6,0.4l-1.3-0.4l0.6,0.7
		l-0.6,0.1l0.1,0.4l0.5,0.4l0-0.4l0.3,0.4l0.7-0.2l0.6,0.4l0.8,1.9l-0.5,0.4l0.5-0.1l-0.3,1.3l0.3,0.7l-0.5,0l0.3,0.1l-0.3,0.4
		l0.4-0.3l-0.7,0.5l0.7,0.4l0.4-0.9l-0.1,0.7l0.6,0.1l-0.6,0.3l0.7,0L67,34.4l0.4-0.1l-0.3,0.2l0.5,0.2l-0.4-0.1l0.4,0.8l-0.9-0.6
		l-0.7,0l0.8,0.8l0.9,0.1l-0.6,0.9l0.5,0.1l-0.2,0.3l-0.3-0.3l0.1,0.7l-0.7-0.2l-0.6,0.3l1.3,0l-0.4,0.3l0.5,0.4l-1.3-0.5l0.5,0.3
		l-0.5-0.2l-0.4,0.6l1.1-0.4L66.2,38l0.9,0.1l-1.8,0.3l1.1,0.2l-1.2,0l0.7,0.5l-0.7,0.1l0.5,0.2l-0.6-0.1l0.2,0.2l-0.4,0.2l1.5-0.8
		l0.3,0.2l-1.7,0.7L66,40l-0.8,0.3l0.3,0.5l0.7-0.4l0.4,0.2l-1.2,0.3l0.3,0l-0.2,0.6l0.5-0.2l-0.5,0.3l0,0.6l0.8-0.5L66.2,41
		l0.5,1.1l-0.6-0.4l0.3,0.2l-0.9,0.2l0.9,0.2l-0.8,0l0.4,0.2l-0.4,0.2l0.6,0.1L65.7,43l0.6,0.1l-0.5,0l0.6,0.2l-0.3,0.5l0.4-0.3
		L66,44.1l0.6,0.3l-0.3,0.3l0.5-0.1L66.4,45l0.4-0.2l-0.3,0.3l0.3,0.1l-0.4,0.1l0.6,0.1l-0.5,0.1l0.7,0.1l0.1,0.6l1.5-0.4l-0.7,0.5
		l0.5-0.3l-0.4,0.5l0.5-0.2l0,0.4l0.4-0.4l-0.4,0.7l0.5-0.5L69.1,47.3 M57.2,42.9l-0.6-2.4l0.4,0.6l0.1-0.5l1,1.7l0.3-1.3l0.1,0.7
		l0.3-0.8l-0.4-0.5l0.4,0l-0.1-0.5L58.3,40l0-0.5l-0.2,0.3l0.2-1.1l-0.6,0.1l0.3-0.7l0.5,0.2l0-0.8l0.5,0.2l0.1,0.6l0.4-0.2
		l-0.4,0.4l0.9-0.2l-0.8,0.5l0.5,1.2l0.5-1.1l0.2,0.5l0.1-0.6l0.4,0.3l-0.3-0.5l0.6,0.2l-0.2-0.4l0.4,0.1l-0.2-0.5L61,38.3l0.1-0.3
		L60.6,38l0.6-0.5l-0.5,0.4l0.3-0.3l-0.7,0.1l0.5-0.2l-0.3-0.2l0.4,0.1l0-0.6l-0.4,0.1l0.4-0.3L60.3,37l0-0.5L60,36.9l0.3-0.4
		l-0.3,0.2l0.2-0.4l-0.3,0.1l0.1-0.4l-0.4-0.1l0.6,0l-0.9-0.8l0.6,0.3l0-0.4L59.5,35l0.5-0.1l-0.3-0.3l0.8,0.5l-0.1-0.4l-1.1-0.5
		l1.2,0.2l0.1-0.3l-0.2-0.5l-1.1,0.4l0.8-0.4l-0.7,0l1-0.2l-0.3-0.4l-0.6,0.2l0.5-0.3l-1.1,0.6l0.5-0.5l-0.4,0l0.9-0.4l-1,0.2
		l0.9-0.4l-0.2-0.6L59,32.3l0.6-0.7L58.7,32l0.5-0.4l-0.2-0.1l0.6-0.2l-0.8-0.1l0.8-0.4L59,30.2l-0.5,0.1l0.2,0.5l-0.5-0.4l0,0.6
		l-0.1-1l-0.8,0.4l0.9-0.6l0.4-1.1l-1.2-0.2l0.1,0.5L57,28.7l0.2,0.5l-0.3-0.4l-0.3,1l-0.1-0.4L56,29.5l0.1,0.6l-0.7,0.5l0.2-0.3
		l-1.3-0.8l-0.3,0.6l0,0.4l0.7,0.1l-0.3,0.6l1.2,0.9l0-0.6l0.2,0.9l0.1-0.5l0.8,0.8l0.1-0.6l0.4-0.2l-0.2,1.1l0.4-0.1l-0.3,0.3
		l0.4,0.1l-0.1,0.5l-0.8,0.3L57,34l0.1,0.7l0.3,0l-0.3,1.6l-0.7,0.3l0.3,0.3l-0.4-0.2L55.5,37l0,0.9l-1.1-0.2l-0.5-0.6l-1,0.9
		l1.5,0.8l0.3-0.6l0.1,0.8l0.3-0.3l-0.2,1l0.5,0.5l-0.5,0l0,0.4L57.2,42.9L57.2,42.9 M66.8,21.7l-1,0l-0.3,0.6l-0.2-0.7l-0.4,0.1
		l0,0.4l-0.2-0.4l-0.9,0l0.2,0.2l-0.4,0.1l0.5,0.2l-0.8,0.1l0.9,0.3l-1-0.2l0,0.4l1.2,0.1l-0.8,0l-0.3,0.1l0.7,0l0.2,0.1l-0.4,0.1
		l0.4,0.1l1.2-0.3l-0.8,0.3l0.4,0.2l-1.5-0.1l-0.2,0.8l0.1-0.8L63.2,23l-0.6,1.2l-0.3-0.1l0.6,0.3l-0.5,0l-0.1,0.3l-0.2-0.6
		l-0.5-0.1l-0.7,0.4l0.5,0l-0.2,0.3l0.6-0.3l-1,0.8l1-0.1l-1.1,0.4l-0.2-0.9l-0.3,0.7l-1.1,0l0,0.3l0.4-0.3l-0.2,0.4l0.3-0.2
		l-0.1,0.3l0.3-0.2l0,0.5l0.5-0.2l0,0.3l0.2-0.3l-0.1,0.4l0.3-0.4l-0.2,0.8l0.9,0.1l0.5-0.4l-0.7-0.6l0.4-0.4l0.4,0.7l0.6-0.5
		l0.5,0.2l0-0.3l0.5,0.1l-0.2-0.3l0.5,0.1l-0.5-0.8l0.8,0.4l-0.5-0.6l1,0.3l0.1-0.4l0.4,0.4l0.4-0.2l-0.3-0.2l0.4,0.2l0.1-0.4
		l0.1,0.2l1.5-0.6l-1.1,0l0.8-0.2l-0.3-0.3l0.5,0.3l0.8-0.2l0.4-0.3l-0.1-0.5l-0.8,0l0.5-0.2L66.8,21.7L66.8,21.7 M101.3,51.7
		l0.6-0.9l-0.1-0.3l-0.7,0.3l0.3-0.4l-0.1-1.2l-0.6-0.3l-0.7,0.4l0,0l-0.4-0.7l-0.2,0L99,48.8l0.4-0.3l-0.3-0.4L98.1,48l-1.4-1.2
		L95.7,47l0.6-0.5l-0.5,0.1l0.3-0.4l-0.3-1.3l-1.3,0.8l0-1.6l-1,0.5l0.5,0.9l-0.4,0.1l0.7,0.7L94,47l0.7-0.3l0.4,1.7l0-0.7l0.1-0.5
		l0.4,0.2l-0.3,0.1l0.5,1.3l0.3,0.2l-0.1-0.3l1-0.6l-0.1,0.7l0.6,0.3l0.1-0.3l0.2,0.8l0.4,0.1l-0.8,0.6l-0.1,0.6l0.4-0.3l0.3,0.4
		l-0.5,1.2l1.5,0l0.4-0.8l-0.1,0.9l-0.8,0.3L98,54.3l1.3-0.8l-0.2-0.6L101.3,51.7L101.3,51.7 M59.1,62.1l1.1-0.9l0.1,0.6l-0.5,0.7
		l0.6-0.4l-0.2,0.7l0.4,0.1l0.6-1l-0.1-0.4l-0.5,0.3l0.4-0.7l-0.7,0.7l-0.2-0.5l0.3-0.2l-0.2-0.3l0.8-0.3l-1,0l0.8-1l-0.8-0.1
		l0.1-0.4l-0.9,0.5l0.3-0.6L59,59l0.7-0.6l-0.6-0.1l0.1-0.3l-0.7,0.6l1.3-1.7l-0.2-0.4l0.4,0.1l-0.2-0.4l-1.4,0.9l-0.6,1.5l-0.4,0
		l0.1,0.6L57.1,59l-0.9,0.7l0.8,0.1L56,60.3l0.1,0.4l0.7-0.1l1.1,0.6l1-0.4l-0.4,0.6l1.2,0l-1.2,0.7L59.1,62.1L59.1,62.1 M47.3,25.2
		l-0.6,0.4l0.9,1l1.2,0.2l-0.4,0.8l0.8,0.8l0.4-0.5l-0.6,0.1l0.6-0.5l0,0.3l0.6,0l-0.2,0.3l0.5-0.4l0.2-1.4l1.8-1.3l0.3-0.6
		l-0.3-0.2l-1.7,1l1.2-1.3l-0.1-0.2l-0.5,0.5l0-0.3L51.3,24l-0.1-0.2l0.6,0l0.1-0.5l-0.7-0.2l0.9-0.4l-1.4-0.5l-0.9,0.2l0,0.4
		l-0.4,0l0.5,0.7l-0.9-0.6l-0.4,0.4l0.5,1L49,25l-1-1.4l-0.6,0.6L47.3,25.2L47.3,25.2 M84.4,41.3l0.8-0.8l0.3-0.9l-0.3,0l0.3-0.2
		l-1.3-0.8l0.2-0.4l-0.3,0.4l-0.5-0.3l0,0.5l-0.8,0.1l0.3,0.5L82.5,39l-0.1,0.6l-0.6-0.3l0,1.1l-0.4-0.9l-1-0.3l0.5,0.6l-0.6-0.3
		l0.3,0.6l-0.5-0.1l0.2,0.3L80,40.3l1.4-0.2L81,40.5l0.5,0.1l-1.1,0.4l1.6,0.3L81.5,42l0.8-0.3l1.4,0.3L84.4,41.3L84.4,41.3
		 M95.6,52.9l0.9-0.9l-1-2l0.3-0.8l-0.9-0.6l-0.6,0.5l0.1-0.4l-0.4,0l0.1,0.5l-0.4-0.2l-0.2,0.8l0.5-0.1l0,0.6l-1,0.4l0.6,0.4
		l-0.2,0.6l0.9-0.1l-0.4,1l0.8-0.4L93.8,53l0.4-0.1L94,53.5l0.6-0.3l-0.3,0.5l0.4-0.3l-0.1,0.4L95.6,52.9L95.6,52.9 M57.3,26.1
		l0,0.7l0.7-0.1l-0.2,0.5l1,0.6l0.3-0.3l0.1,0.6l0.9,0l-0.2-0.2l0.5-0.3L60.3,27l-1.5-0.3l-0.2-0.6l-0.3,0.2l0.3-0.6l-0.4-0.1l0.4,0
		l-0.1-0.4l0.4,0.4l-0.2-0.5l0.3-0.1l-0.7-0.2l0.5-0.4L58.4,24l-0.5,0.7l0.5,0.3L57.3,26.1L57.3,26.1 M53.9,21.7l0.7,0.1L54.2,22
		l0.5,0.5l-1-0.4l-0.1,0.6l1.1,0.4l0.3,0.5l1-0.3l0.1-0.3l-0.5,0.2l0-0.3l1.1-0.7l-0.7,0l-0.8,0.7L55,22.3l0.8-1.1l-0.3-0.1l0,0.3
		l-0.5-0.3l0.1,0.4l-0.6-0.3l0.3,0.4l-0.7-0.3L53.9,21.7L53.9,21.7 M60.9,23l0,0.6l-0.3-0.1l-0.1,0.3l0.4,0.4l0.4-0.4l-0.3,0.5
		l0.9-0.5l-0.2,0.3l1-0.2l0.2-0.3l-0.3-0.1l0.8-0.6L62.7,23l0.6-1.4l-0.8,0.1l-0.1,0.4l-0.5-0.2l-0.1,0.5L61.7,22l-0.3,0.2l0.2,0.3
		L61,22.7l0.7,0.6L60.9,23L60.9,23 M85.3,24.2l0.7,0l-1.6-1.4l0-0.5L83,22.1l0.2,0.2l-0.9-0.3l1.2,0.7l-1.1-0.3l0.4,0.4l-0.5,0
		l-0.1-0.4l-0.1,0.6l1.7,0.6L83.5,23l0.4,0.2l-0.1-0.3l0.4,0.1L84,23.7l0.4,0.2l0.2-0.6l-0.1,0.5l0.4-0.1L84.6,24L85.3,24.2
		L85.3,24.2 M91.6,17.1L91,17.1l0.1-0.2l-1.2-0.5L88.3,15l-0.9,0l1.1,0.7l0.3,0.7l1.6,1.1l0.6-0.1l0.6,0.5l0.2-0.2l-0.1,0.3l0.5,0.4
		l0.1-0.5l0.4,0.5l0-0.6l-0.6,0l0.1-0.3l-0.3,0.2l0.1-0.3l-0.5,0L91.6,17.1L91.6,17.1 M33.2,88.9l0.9,0l-1.4-1.2l0.1-0.5l-1.1-0.7
		l-2.2-3.2l-1.1-1l-2.6-0.9l-0.4,0.7l-0.6-0.2l0.8,0.4l1.3-0.2l0.8,0.5l0.1,0.3l-0.5-0.1l0.2,0.4l2.6,2.1l0.3,1.3l0.8,0.5l0,0.4
		l-0.7,0.3L33.2,88.9L33.2,88.9 M36.6,92.6l0.6-0.3l2.1,1l0.4-0.3l-1.3-1l0.5-0.1l-0.6-0.2l-0.1-0.5l-2.8-1.4l-0.7,0l0.7,0.6
		l-0.2,0.4l0.4,0.8l-1.8-0.9l-0.3,0.2l0.5,0.7l1.9,0.5l0.5,1L36.6,92.6L36.6,92.6 M66.7,0.2l0.7,0l-0.6,0l-0.6,0l0.3,0l2-0.1l0.8,0
		l-0.8,0l-0.8,0l1.7-0.1L70,0.2l0.3,0l-0.4,0l0.7,0l0.1-0.1l-0.5,0L66.7,0.2L66.7,0.2 M53.1,27.5l1.1-0.6l-0.1-0.6l1-0.2l-0.6-0.8
		l-0.4,0.4L54,25.4l0,0.6l-0.5,0.2l0-0.6L53,25.7l-0.7,1.7l0.3,0.2l0.5-0.3l-0.2,0.2L53.1,27.5L53.1,27.5 M50.9,38.3l0.6-0.1
		l-0.1-0.5l-0.5-0.1l0.5-0.5l-0.3-1.5l-0.4,0.1l0.3-0.8l-1.7,1.5l-0.8,0.2l0.7,0.3l-0.3,0.7l1.7-0.5l-0.2,0.6L50.9,38.3L50.9,38.3
		 M95.7,18.9l-0.1-1l-1.3,0.4l-0.8-0.1l-0.7-0.5l-0.1,0.4l0.2,0.4l0.3,0l0.2,0.3l0.1-0.3l1,0.8l0.4,0l-0.1-0.4L95.7,18.9L95.7,18.9
		 M36.2,15.4l0,0.1l-0.3,0l0.2,0.4l0.3-0.2l-0.3,0.3l0.4-0.1l0.4-0.4l-0.3,0l0.3-0.2l-0.6,0.2l0.5-0.4l-0.2,0L36.2,15.4L36.2,15.4
		 M83.6,20.8l-0.6,0.1l0.1,0.3l-0.5-0.2l0.5,0.3l-0.9,0l0.4,0.2l-0.2,0.2L83,22l0.2-0.4l0.2,0.4l0.7-0.3L83.6,20.8L83.6,20.8
		 M55.8,24.7l0.4,0.3l0.5-0.1l1.1-1L57.5,24l-0.2-0.4l-0.5,0.6l0.3-0.7L56.6,24l-0.5-0.2l0.6,0.5l-0.5,0L55.8,24.7L55.8,24.7
		 M50.1,21.9l2.2,0.5l0.6-0.8l-0.4-0.2l0.5-0.7L52.7,20L52,20.5l-2.2,0.1l0,0.3l-1,0.8l0.6,0.5L50.1,21.9L50.1,21.9 M24.9,32.7
		l0.3,0.3l-0.5,0.2l-0.1,1.2l1.6-2.4l0.3-1.8l-0.3,0.4l0.2,0.2l-0.5,0.1l0.1,0.4L24.9,32.7L24.9,32.7 M30.7,25.7L30.4,26l0.6-0.3
		l0.1-0.4l0.1,0.2l1-1.1l-0.8,0.5l0,0.2l-0.3,0L30.7,25.7L30.7,25.7 M28.6,27l0.2,0l0.1-0.4l0.9-0.2l-0.6-0.1l0.4-0.1l0.2-0.5
		l-1.1,0.8l-1,1.3L28.6,27L28.6,27 M72.7,6.7l-1.8,0l0.4,0.4l-0.4-0.4l-0.6,0.3l1.3,0.3l0.2-0.3l0.5,0.3l0.6-0.3L72.7,6.7L72.7,6.7
		 M55,62.6l-0.3-0.5l-0.6,0.6l-0.3-0.1l0.8-0.6l0.2-0.9l-1.2,1l0.1,0.6L55,62.6L55,62.6 M56.7,20.4l-0.3-0.3l-1.8-0.1l0.4,0.2
		l-0.3,0.3l1.3,0l-0.6,0.3l1.3-0.1L56.7,20.4L56.7,20.4 M55.7,30.3l0.3-0.8l0.6-0.6l1.3-0.6l-0.3-0.4L56.2,28l-1.8,1.2l0.6,0.8
		L55.7,30.3L55.7,30.3 M104.5,43.2l-0.1-0.8l-0.6-0.4l0.3,0.5l-0.4-0.2l-0.2,0.5l1.5,0.7L104.5,43.2L104.5,43.2 M81.6,11.5l-0.7-0.4
		l-0.7,0.4l0,0.2l0.4,0l-0.3,0.1l1.3,0.2L81.6,11.5L81.6,11.5 M59.1,23.1l0.8-0.7l0-1l-0.6,0.3l0.1,0.3l-0.6,0.1l0.3,0.2L59.1,23.1
		L59.1,23.1 M33.5,23.3l0.5-0.6l-0.3,0.5l0.3-0.1l0.3-0.7L33.4,23l0.4-0.2L33.5,23.3L33.5,23.3 M53.8,27.8l0.8,0l0.1-0.4l0.5,0.4
		l1.5-0.5l-1-1L53.8,27.8L53.8,27.8 M85.9,22.5L85,22.3l-0.1,0.4l0.7,0.4l0-0.3l0.4,0.2L85.9,22.5L85.9,22.5 M46.1,46.2l0.5,0.1
		l-0.2,0.2L47,46l-0.4,0.3l0.4-0.6L46.1,46.2L46.1,46.2 M66.8,36.1l-0.4-0.8l-0.6-0.1l-0.2,0.7l0.6,0.1l-0.3,0.3L66.8,36.1
		L66.8,36.1 M125.3,56.5l0.6-0.8l-0.1-0.4l-0.1,0.5l-1.3,0.8l0.3,0.4L125.3,56.5L125.3,56.5 M16,102l0.2-0.1l-0.5-1.2l-0.2,0
		l0.4,0.9l-0.3,0L16,102L16,102 M42.7,137.8l0.3,0.1l-0.7-0.4l-0.4-0.2l0.1,0.1l0.3,0.2L42.7,137.8L42.7,137.8 M31.6,25.6l-0.4,0.1
		l-0.1,0.2l0.3-0.1L31,26l0.1,0.2L31.6,25.6 M81.6,10.6l-1.4-0.3L80,10.8l0.5,0L80.1,11L81.6,10.6L81.6,10.6 M81,12.1l-0.7-0.3
		L79.8,12l-0.2,0.5l1.5,0L81,12.1L81,12.1 M32.7,80.9l0.2,0.3l0.4-0.7l-0.4-0.7l0.3,0.6L32.7,80.9L32.7,80.9 M113.9,61.1l0.6-0.9
		l-0.6-1.4l-0.8-0.5l-0.5,0.8L113.9,61.1L113.9,61.1 M52.5,61.9l0.9-0.4l-1.6-0.5l0.2-0.7l-0.5,0.4L52.5,61.9L52.5,61.9 M30.8,90.3
		l0.8,0.3L31,89.7l-1.4-0.6l0.4,0.8L30.8,90.3L30.8,90.3 M37.8,11.1l0.1,0.2l0.3-0.3L37.8,11.1l0.3-0.3L37.8,11.1L37.8,11.1
		 M128.7,51.8l0.1-1.1l-0.3-0.2l-0.1-0.8l-0.3,2L128.7,51.8L128.7,51.8 M46.6,104.8l0.1-0.7l-0.9-0.1l0.2,0.5l-0.6,0.1L46.6,104.8
		L46.6,104.8 M31.9,83.1L31.7,83l0.2-0.3l-0.3,0.1l0.1,0.5L31.9,83.1L31.9,83.1 M58.4,29.6l0,0.3l1.1,0.4l0.1-0.8l-0.8-0.7
		L58.4,29.6L58.4,29.6 M98.1,20.9l-0.4-0.5l-0.5,0.2l0.5,0.4L98.1,20.9L98.1,20.9 M54.3,58.4l0.2-0.3L54,57.6L52.7,57L54.3,58.4
		L54.3,58.4 M123.2,51.8l0.1-0.2l-0.4-0.2l-0.1,0.4L123.2,51.8L123.2,51.8 M33.5,82.6L33.4,83l0.2-0.6l-0.4-0.8L33.5,82.6L33.5,82.6
		 M46.8,9.5l0,0.2l1.5-0.8l-0.4,0L46.8,9.5L46.8,9.5 M32.9,24l-0.6,0.4l0,0.2l0.5-0.2L32.9,24L32.9,24 M42,94.5l0.5-0.3l-1.8-0.5
		l0,0.5L42,94.5L42,94.5 M103.2,43.4l0.3,0.4l0.4-0.2l-0.5-0.5L103.2,43.4L103.2,43.4 M123.2,53.8l-0.6-0.5l-0.6,0.1l-0.1,0.4
		L123.2,53.8L123.2,53.8 M92.8,45.8l0.2,0.2l0.2-0.3l-0.2-0.7L92.8,45.8L92.8,45.8 M93.8,30.6l-0.1-0.8l0,0.4l-0.4-0.3L93.8,30.6
		L93.8,30.6 M31.6,82.5l0.3-0.3l-0.2-0.8L31.3,82L31.6,82.5L31.6,82.5 M78,32.8l0.8,0.2l-0.6-0.6l-0.5,0.1L78,32.8L78,32.8
		 M28.4,28.6l0.1,0L28.1,29l0.9-0.8L28.4,28.6L28.4,28.6 M26.3,83.3l0.4,0.1l0-0.4l-0.2-0.2L26.3,83.3L26.3,83.3 M91.5,14.4
		l-0.4-0.1l0.2,0.3l0.4,0L91.5,14.4L91.5,14.4 M52.9,25l0.7-0.2l-0.2-0.5l-0.3,0L52.9,25L52.9,25 M69.7,6.8L69,6.8L68.5,7L70,7.1
		L69.7,6.8L69.7,6.8 M70.9,5.8L70.7,6l0.5,0.2l0.8-0.3L70.9,5.8L70.9,5.8 M110,63.2l0.1-0.6l-0.3-0.2l-0.4,0.8L110,63.2L110,63.2
		 M112.7,58.2l-0.1-0.9l-0.7-0.9l-0.1,1.1L112.7,58.2L112.7,58.2 M49.8,29.1l0.1,1l0.8,0l0.3-1.4L49.8,29.1L49.8,29.1 M33.3,23.8
		l0.8-0.4l0.3-0.4l-1.5,0.8L33.3,23.8L33.3,23.8 M119.3,60.3l-0.6-2l-1.7,1.9l0.4,0.4L119.3,60.3L119.3,60.3 M42.7,10.7l0.6-0.2
		l0.3-0.4l-0.9,0.4L42.7,10.7L42.7,10.7 M37.4,12l-0.3,0.3l0.6-0.3l0-0.3L37.4,12L37.4,12 M56.5,35.1l-0.4-0.5l-0.8,0.9l0.7,0.2
		L56.5,35.1L56.5,35.1 M49.6,38.4l-0.7,0.1l-0.2,0.4l1.4-0.3L49.6,38.4L49.6,38.4 M46.5,98.2L47,98l-0.3-0.4l-0.4,0.1L46.5,98.2
		L46.5,98.2 M57.8,21.4l-0.3-0.5L57.1,21l0.1,0.4L57.8,21.4L57.8,21.4 M81.4,12.1l-0.3,0l0.3,0.3l0.3-0.2L81.4,12.1L81.4,12.1
		 M59.5,23.5l0.7-0.2l0-0.7l-0.8,0.5L59.5,23.5L59.5,23.5 M142.4,86.2l0-0.2l-0.1,0.5l0,0L142.4,86.2L142.4,86.2 M96.6,17.5
		l-0.3-0.2l-0.5,0.4l0.5,0.1L96.6,17.5 M104.9,35.7l-0.1,0.2l0.4,0l0-0.3L104.9,35.7 M42.8,11.2l0.3-0.2l0-0.2l-0.3,0.1L42.8,11.2
		 M94.2,47.1l0,0.4l0.3-0.3L94.2,47.1L94.2,47.1 M58,20.7l0.5,0.5l0.2-0.4L58,20.7L58,20.7 M78.1,32.1l-0.7-0.2l-0.3,0.3L78.1,32.1
		L78.1,32.1 M136,42.9l-0.2-0.4l0.3,1L136,42.9L136,42.9 M140.3,64.9l0.1-0.3l-0.2,0L140.3,64.9L140.3,64.9 M114,52.2l-0.3-0.1
		l0.5,0.2L114,52.2L114,52.2 M11.9,57.4l-0.1,0.4l0.2-0.4L11.9,57.4L11.9,57.4 M93.8,46.3l-0.6-0.2l0.7,0.5L93.8,46.3L93.8,46.3
		 M104.8,39.5l0.6,0.9l-0.8-1.3L104.8,39.5L104.8,39.5 M93.5,30.3L93.2,30l0.1,0.4L93.5,30.3L93.5,30.3 M83.1,23.7l0.5,0.1l-0.9-0.3
		L83.1,23.7L83.1,23.7 M121.2,55.9l0.3-0.2l-0.4-0.2L121.2,55.9L121.2,55.9 M44.2,138.4l-0.2-0.1l-0.2-0.1L44.2,138.4L44.2,138.4
		 M34.8,86.4L34.8,86.4l0.2-0.3l-0.6,0.5L34.8,86.4 M37.6,17.3l0.3,0l-0.5-0.1L37.6,17.3L37.6,17.3 M84.3,18.1l-0.4-0.6l-0.5,0
		L84.3,18.1L84.3,18.1 M30.6,25.5l-0.2,0.2l0.6-0.5L30.6,25.5L30.6,25.5 M105.7,36.8l-0.1-0.9l-0.5,0.5L105.7,36.8L105.7,36.8
		 M36.8,15.7L37,16l0.3-0.4L36.8,15.7L36.8,15.7 M57.1,8.1l-0.8,0.7l0.9-0.3L57.1,8.1L57.1,8.1 M97.2,83.6l0.4-0.9l-0.7,0.5
		L97.2,83.6L97.2,83.6 M93.4,29l-0.3,0l0.4,0.6L93.4,29L93.4,29 M59.5,117.6l0.4-0.3l-0.9,0L59.5,117.6L59.5,117.6 M57.4,43.7
		l0.3-0.2l-0.4-0.1L57.4,43.7L57.4,43.7 M59.8,6.2l0,0.2l0.6-0.1L59.8,6.2L59.8,6.2 M41.5,65.1l1.1,0.3l0.5-0.3L41.5,65.1L41.5,65.1
		 M56.4,25.3l0.3,0.8l0.7-0.8L56.4,25.3L56.4,25.3 M32.5,24.2l0.3-0.3l-1,0.5L32.5,24.2L32.5,24.2 M32.7,23.7L32,24.1l1.5-1
		L32.7,23.7L32.7,23.7 M53.6,3l0.6-0.1l-0.9,0.2L53.6,3L53.6,3 M142.2,57.1l-0.1-0.6l0.1,1L142.2,57.1L142.2,57.1 M99.8,82.6l0-0.7
		l-0.4,1L99.8,82.6L99.8,82.6 M52.3,32.7L52.2,33l0.5-0.5L52.3,32.7L52.3,32.7 M51.5,35.4l0.3,0.2l-0.1-0.7L51.5,35.4L51.5,35.4
		 M43,48.6l0.6,0.8l0.1-0.7L43,48.6L43,48.6 M26.6,71.4L26.6,71.4l-0.2-0.1l0.6,0.3L26.6,71.4 M126,53.7l-0.2-0.6l0,0.6L126,53.7
		L126,53.7 M54.6,20.9l0.5-0.1l-0.7-0.1L54.6,20.9L54.6,20.9 M59.3,1.1L59.3,1.1L59.9,1L59.3,1.1L59.3,1.1 M125.8,99.4l0.2,0
		l0.2-0.7L125.8,99.4L125.8,99.4 M78.7,29.9l0.4-0.1l-0.4-0.3L78.7,29.9L78.7,29.9 M83.9,16.7l0.4-0.1L84,16.4L83.9,16.7L83.9,16.7
		 M25.7,110.2l0.2-0.1l-0.3-0.2L25.7,110.2L25.7,110.2 M35.2,88.4l0.2-0.3l-0.8,0.1L35.2,88.4L35.2,88.4 M43.2,103l-0.4-0.1l0.7,0.2
		L43.2,103L43.2,103 M81.1,7.9L81,7.7l-0.4,0.1L81.1,7.9L81.1,7.9 M100.1,81.5l-0.1-0.3l-0.3,0.6L100.1,81.5L100.1,81.5 M52,39.3
		l0.4-0.2l-0.4-0.2L52,39.3L52,39.3 M91.5,100.6l0.3-0.1l-0.4-0.3L91.5,100.6L91.5,100.6 M70.6,23.2l0.4,0.6l0-0.4L70.6,23.2
		L70.6,23.2 M34.9,90.9l-0.3-0.2l0.4,0.5L34.9,90.9L34.9,90.9 M84.9,22.6l-0.4-0.3l0,0.3L84.9,22.6L84.9,22.6 M55.8,32.7l0.4-0.1
		l-0.5-0.1L55.8,32.7L55.8,32.7 M50.1,40.2l0.5-0.1l0.1-0.5L50.1,40.2L50.1,40.2 M37.9,99.9L37.9,99.9l0.3,0.3l-0.4-0.5L37.9,99.9
		 M98.5,83.3l-0.4-0.1l-0.1,0.4L98.5,83.3L98.5,83.3 M73.4,0.3l0.2,0l0.3,0L73.4,0.3L73.4,0.3 M52,7.5L52,7.5l-0.3,0.2l0.6-0.4
		L52,7.5 M57.8,22.4l0.3-0.3l-0.6,0.5L57.8,22.4L57.8,22.4 M83.8,16.3L83.2,16l0.2,0.3L83.8,16.3L83.8,16.3 M43.8,6.4l-0.4,0.2
		l0.7-0.3L43.8,6.4L43.8,6.4 M59.6,23.9l-0.5-0.2l0.3,0.5L59.6,23.9L59.6,23.9 M57,35.3l-0.4-0.2l0.4,0.5L57,35.3L57,35.3
		 M124.2,103.6l0.1,0.2l0.2-0.4L124.2,103.6L124.2,103.6 M78,30.9l0.6-0.1l-0.4-0.2L78,30.9L78,30.9 M60.1,24.6l-0.2-0.2l-0.2,0.4
		L60.1,24.6L60.1,24.6 M105.9,43.2l-0.3-0.3l0,0.4L105.9,43.2 M57,2.8l-0.5,0.3l0.6-0.2L57,2.8 M77.1,35.1l1-0.3l-0.3-0.4L77.1,35.1
		 M77.8,32.4l0.8,0l-0.3-0.3L77.8,32.4 M42.2,7.4L42,7.5l0.4-0.2L42.2,7.4 M105.3,39l-0.5-1.1l0,0.7L105.3,39 M29.3,27.6l-0.4,0.5
		l0.7-0.7L29.3,27.6 M30.7,84.6l0.2,0.3L30.7,84.6L30.7,84.6 M93.3,29.9l-0.1-0.4L93.3,29.9L93.3,29.9 M49.5,28.7l-0.2,0.3
		L49.5,28.7L49.5,28.7 M94.4,48.2l0.1-0.4L94.4,48.2L94.4,48.2 M11.9,56.2L11.7,57L11.9,56.2L11.9,56.2 M85.9,73.6l0.7,0L85.9,73.6
		L85.9,73.6 M115.6,52.8l0.3-0.2L115.6,52.8L115.6,52.8 M33.2,84.2l0.3,0.3L33.2,84.2L33.2,84.2 M42,7.5l-0.2,0.2L42,7.5L42,7.5
		 M90.2,41.2l0.3,0.2L90.2,41.2L90.2,41.2 M93.4,26l-0.3,0.1L93.4,26L93.4,26 M83.4,15.9l-0.7-0.2L83.4,15.9L83.4,15.9 M10.5,56.3
		L10.5,56.3l0.2-0.2L10.5,56.3 M83.7,18.3l0-0.5L83.7,18.3L83.7,18.3 M59,117.1l0,0.3L59,117.1L59,117.1 M57,44.8l0.2,0.2L57,44.8
		L57,44.8 M58.7,41.3l0.1,0.4L58.7,41.3L58.7,41.3 M93.3,28.2l-0.1,0.3L93.3,28.2L93.3,28.2 M36.8,13.1l-0.3,0.2L36.8,13.1
		L36.8,13.1 M58,42.5l0.3,0.1L58,42.5L58,42.5 M110.4,62.1L110.4,62.1l0.3-0.1L110.4,62.1 M27.7,29.6L27.7,29.6l-0.2,0.1L27.7,29.6
		 M55.2,44.3l0-0.4L55.2,44.3L55.2,44.3 M93.7,30.5L93.7,30.5l0,0.3L93.7,30.5 M24.5,99L24.5,99l0.1,0.3L24.5,99 M52.6,39.2l0-0.3
		L52.6,39.2L52.6,39.2 M94.3,43.8l0.2,0.2L94.3,43.8L94.3,43.8 M57.3,49.8l0.3,0.1L57.3,49.8L57.3,49.8 M70.9,43.3l0.4,0.3
		L70.9,43.3L70.9,43.3 M46.9,100.9l0.1-0.4L46.9,100.9L46.9,100.9 M116.2,52.8L116.2,52.8L116,53L116.2,52.8 M138.8,46.4l-0.2-0.6
		L138.8,46.4L138.8,46.4 M83.3,10.8l-0.3,0L83.3,10.8L83.3,10.8 M103.8,34.9l-0.1-0.4L103.8,34.9L103.8,34.9 M83.3,16.9L83.3,16.9
		l0.2-0.4L83.3,16.9 M82.7,16.6l0.3,0.2L82.7,16.6L82.7,16.6 M67.9,46.3l0.3-0.2L67.9,46.3L67.9,46.3 M94.2,41.5l0.1,0.3L94.2,41.5
		L94.2,41.5 M62.5,138.2l0.2-0.2L62.5,138.2L62.5,138.2 M22,87L22,87l-0.2,0L22,87 M16.4,102l0.3,0.2L16.4,102L16.4,102 M91.4,13.1
		L91.4,13.1l-0.4-0.3L91.4,13.1 M87.6,12.4l-0.4,0L87.6,12.4L87.6,12.4 M25.7,32.7l-0.2,0.4L25.7,32.7L25.7,32.7 M120.2,54.9
		l-0.4-0.2L120.2,54.9L120.2,54.9 M22.7,82.3l0.3,0L22.7,82.3L22.7,82.3 M121,55.4l-0.1-0.4L121,55.4L121,55.4 M102.2,35.9l0.3,0.1
		L102.2,35.9L102.2,35.9 M90.5,41.5l-0.4-0.2L90.5,41.5L90.5,41.5 M94.5,47.7L94.5,47.7l0.1-0.2L94.5,47.7 M55.7,33.3l0.6-0.2
		L55.7,33.3L55.7,33.3 M98.6,14.8l-0.3-0.2L98.6,14.8L98.6,14.8 M20.9,85.2l0.2-0.2L20.9,85.2L20.9,85.2 M20.5,68.3L20.5,68.3l0.3,0
		L20.5,68.3 M37.9,17.5l0,0.2L37.9,17.5L37.9,17.5 M33,23.2l0.4-0.2L33,23.2L33,23.2 M39.2,67.8l0.3-0.3L39.2,67.8L39.2,67.8
		 M46.6,98.7l0.2,0.4L46.6,98.7L46.6,98.7 M34.6,85.8l0.3,0.3L34.6,85.8L34.6,85.8 M46.1,8.5L46.1,8.5l-0.5,0.2L46.1,8.5 M90.6,41.9
		l0.3,0.2L90.6,41.9L90.6,41.9 M78.4,28.9L78.4,28.9l-0.5-0.7L78.4,28.9 M90.5,98.9l0.5,0L90.5,98.9L90.5,98.9 M103.7,44l-0.3-0.1
		L103.7,44L103.7,44 M45.5,47.4l0.4,0.1L45.5,47.4L45.5,47.4 M31.8,25.3L31.8,25.3l0.4-0.3L31.8,25.3 M136.7,47.4l-0.1-0.1
		L136.7,47.4L136.7,47.4 M13.3,48.1l0-0.3L13.3,48.1L13.3,48.1 M93.6,27.1l-0.2-0.3L93.6,27.1L93.6,27.1 M113.4,52l0.3,0.4L113.4,52
		L113.4,52 M95.2,33.1l-0.1-0.3L95.2,33.1L95.2,33.1 M121.3,52.4l0.2-0.1L121.3,52.4L121.3,52.4 M123.6,53.7l-0.3,0L123.6,53.7
		L123.6,53.7 M78.5,30.2L78.2,30L78.5,30.2L78.5,30.2 M18.8,68.4l0.4-0.1L18.8,68.4L18.8,68.4 M42.9,137.8l0.3,0.1L42.9,137.8
		L42.9,137.8 M36,15.8l0.1,0.1L36,15.8L36,15.8 M121.5,56.1l0.3,0L121.5,56.1L121.5,56.1 M30.7,26.1L30.7,26.1l0.3-0.1L30.7,26.1
		 M47,100L47,100l-0.2-0.4L47,100 M16.6,71.6l0.3-0.4L16.6,71.6L16.6,71.6 M84.2,32.9l0.2-0.5L84.2,32.9L84.2,32.9 M47.2,103.7
		L47.2,103.7l-0.3,0L47.2,103.7 M59.3,117l-0.1,0.2L59.3,117L59.3,117 M34.1,85.4l-0.2-1L34.1,85.4L34.1,85.4 M140.3,62.3l-0.1,0
		L140.3,62.3L140.3,62.3 M9.7,62.1l0,0.4L9.7,62.1L9.7,62.1 M123.7,52.7l-0.3-0.4L123.7,52.7L123.7,52.7 M53,3.2l-0.6,0.1L53,3.2
		L53,3.2 M92.7,46.4l0.3-0.2L92.7,46.4L92.7,46.4 M42.9,65.3l0.4,0.1L42.9,65.3L42.9,65.3 M59.5,32.8l0.3-0.1L59.5,32.8L59.5,32.8
		 M30.4,84.2l0.4,0.3L30.4,84.2L30.4,84.2 M95.8,36.2L96,36L95.8,36.2L95.8,36.2 M60.3,117.7l-0.6,0L60.3,117.7L60.3,117.7
		 M109.1,64.2l-0.2,0.3L109.1,64.2L109.1,64.2 M98.7,14.8L98.7,14.8l0.1,0.2L98.7,14.8 M36.9,15.6l0.2-0.2L36.9,15.6L36.9,15.6
		 M96.4,49.5l0-0.5L96.4,49.5L96.4,49.5 M95.6,83.1l0.2,0.3L95.6,83.1L95.6,83.1 M135.2,57.8l0.1-0.1L135.2,57.8L135.2,57.8
		 M137.6,46.8l0-0.3L137.6,46.8L137.6,46.8 M36.3,13.5l0.2,0L36.3,13.5L36.3,13.5 M25.6,31.5l-0.2,0.3L25.6,31.5L25.6,31.5
		 M40.2,8.7L40.2,8.7l-0.6,0.4L40.2,8.7 M38.1,70.3l-0.4,0.6L38.1,70.3L38.1,70.3 M89.4,98.7l0.4-0.2L89.4,98.7L89.4,98.7
		 M53.5,40.6L53.5,40.6l-0.3-0.2L53.5,40.6 M58.3,117.5l0.5,0.1L58.3,117.5L58.3,117.5 M142.6,85.1l0,0.4L142.6,85.1L142.6,85.1
		 M25,33.8L24.8,34L25,33.8L25,33.8 M66.3,121l0-0.2L66.3,121L66.3,121 M45.9,102.6l0.2-0.2L45.9,102.6L45.9,102.6 M22.7,69.5
		l0.2,0.2L22.7,69.5L22.7,69.5 M96.1,36.1L96.1,36.1L96,36.4L96.1,36.1 M31.1,25.7l-0.3,0.2L31.1,25.7L31.1,25.7 M57.3,20.8l0.4-0.2
		L57.3,20.8L57.3,20.8 M119.3,61.4l0.2,0L119.3,61.4L119.3,61.4 M66.9,136.1l0.3,0L66.9,136.1L66.9,136.1 M84.3,17.2L84,17.2
		L84.3,17.2L84.3,17.2 M60,59l0.3-0.1L60,59L60,59 M51.3,35L51,35.4L51.3,35L51.3,35 M32,25.3l0.3-0.3L32,25.3L32,25.3 M125.1,53.5
		L125.1,53.5l0.1-0.3L125.1,53.5 M124.4,52.6L124.4,52.6l-0.2,0.2L124.4,52.6 M65.7,136.5l0.3,0L65.7,136.5L65.7,136.5 M66.1,37.1
		L66.1,37.1l0.4-0.1L66.1,37.1 M124.6,54L124.6,54l0,0.2L124.6,54 M84.9,21.2L85,21L84.9,21.2L84.9,21.2 M38.2,10.4l0,0.3L38.2,10.4
		L38.2,10.4 M71.7,6.2l0.2,0.1L71.7,6.2L71.7,6.2 M125.9,54.6l-0.1-0.3L125.9,54.6L125.9,54.6 M69.8,47.3l-0.4-0.2L69.8,47.3
		L69.8,47.3 M43.4,138.1l0.3,0.1L43.4,138.1L43.4,138.1 M57.8,117.8l0.4-0.2L57.8,117.8L57.8,117.8 M32.4,79.8l-0.8-0.1L32.4,79.8
		L32.4,79.8 M96.9,50.3l0.3-0.2L96.9,50.3L96.9,50.3 M104.8,43l-0.1,0.3L104.8,43L104.8,43 M92.3,99.3l0.2-0.3L92.3,99.3L92.3,99.3
		 M61.1,37.9l0.2-0.2L61.1,37.9L61.1,37.9 M42.5,94.5l0.3,0.1L42.5,94.5L42.5,94.5 M18.1,69l0.5-0.5L18.1,69L18.1,69 M32.2,24.7
		l-0.2,0.2L32.2,24.7L32.2,24.7 M73.3,7l0,0.2L73.3,7L73.3,7 M124.2,53.3l0-0.4L124.2,53.3L124.2,53.3 M74.2,0.3l-0.2,0L74.2,0.3
		L74.2,0.3 M16.1,101.5l0.3,0.3L16.1,101.5L16.1,101.5 M100.4,52.3l0.3-0.2L100.4,52.3L100.4,52.3 M93.7,27.2l-0.2,0.1L93.7,27.2
		L93.7,27.2 M57.1,23l-0.3,0.3L57.1,23L57.1,23 M119.4,42.1L119.4,42.1l-0.3,0.1L119.4,42.1 M83.7,72.9l-0.3-0.1L83.7,72.9
		L83.7,72.9 M91.2,13.7l-0.2-0.2L91.2,13.7L91.2,13.7 M84.3,72.7l0.3,0L84.3,72.7L84.3,72.7 M40.7,8.4l-0.3,0.3L40.7,8.4L40.7,8.4
		 M32.6,24.5l-0.2,0.3L32.6,24.5L32.6,24.5 M22.7,80.9l0.3,0L22.7,80.9L22.7,80.9 M33.8,83.1l0.3,0.8L33.8,83.1L33.8,83.1
		 M28.4,28.9l-0.2,0.2L28.4,28.9L28.4,28.9 M106.5,43.1L106.5,43.1l-0.1,0.3L106.5,43.1 M48.7,102l-0.2-0.3L48.7,102L48.7,102
		 M60.2,1L60,1L60.2,1L60.2,1 M56.4,23.4l0.4,0.1L56.4,23.4L56.4,23.4 M29.4,27.4l-0.1,0.2L29.4,27.4L29.4,27.4 M38.5,100.1l0.2,0.3
		L38.5,100.1L38.5,100.1 M18.6,68.5l0.2-0.1L18.6,68.5L18.6,68.5 M38,17.1l0.3,0L38,17.1L38,17.1 M57.1,25.1L56.8,25L57.1,25.1
		L57.1,25.1 M28.1,28.8L28.1,28.8l0.4-0.3L28.1,28.8 M36.7,71.3l0.3-0.2L36.7,71.3L36.7,71.3 M84.6,17.6l-0.1,0.2L84.6,17.6
		L84.6,17.6 M41.5,7.8L41.5,7.8L41.5,7.8L41.5,7.8 M66.5,120.6l0.4,0L66.5,120.6L66.5,120.6 M95.6,77.9l0.3,0L95.6,77.9L95.6,77.9
		 M142.1,87.9l0.1-0.5L142.1,87.9L142.1,87.9 M13.1,49.2l-0.1,0.4L13.1,49.2L13.1,49.2 M73.3,6.3l0.2,0.1L73.3,6.3L73.3,6.3
		 M67.2,36.2l0-0.4L67.2,36.2L67.2,36.2 M51,29.2l-0.1,0.3L51,29.2L51,29.2 M122.3,50.8l-0.1,0.2L122.3,50.8L122.3,50.8 M93.6,30.8
		l0.1,0.3L93.6,30.8L93.6,30.8 M31,85.2L31,84.8L31,85.2L31,85.2 M103,57.2l0.3,0L103,57.2L103,57.2 M119.8,41.7L119.8,41.7
		l-0.2,0.2L119.8,41.7 M47.8,4.7l-0.2,0.1L47.8,4.7L47.8,4.7 M23,70.2l0.1,0.2L23,70.2L23,70.2 M61,22l0.4-0.3L61,22L61,22
		 M43.1,95.2l0.4,0L43.1,95.2L43.1,95.2 M83.8,20.1L83.8,20.1l-0.1-0.3L83.8,20.1 M17.2,102.9l0.3,0L17.2,102.9L17.2,102.9
		 M142.3,58.7l0-0.2L142.3,58.7L142.3,58.7 M25.1,33.8L25,34L25.1,33.8L25.1,33.8 M105.8,42l-0.3-0.2L105.8,42L105.8,42 M93.1,27.2
		l0.1-0.5L93.1,27.2L93.1,27.2 M57,34.4l-0.2,0.4L57,34.4L57,34.4 M92.2,98.4l0.1,0.2L92.2,98.4L92.2,98.4 M25.6,110.5l0.2,0
		L25.6,110.5L25.6,110.5 M21.1,84.5L21.1,84.5l0.2-0.2L21.1,84.5 M45,5.9l0.1-0.1L45,5.9L45,5.9 M31.5,79.4L31.5,79.4l0.2,0.3
		L31.5,79.4 M51.3,27.4L51.3,27.4l-0.2,0.2L51.3,27.4 M54.1,31.1L54,30.8L54.1,31.1L54.1,31.1 M55.2,25.8l-0.4-0.3L55.2,25.8
		L55.2,25.8 M15.5,101l0.2,0.3L15.5,101L15.5,101 M32.6,79.6l0.2,0.2L32.6,79.6L32.6,79.6 M83.1,16.3L83.1,16.3l-0.2-0.2L83.1,16.3
		 M26.3,31.1l0,0.2L26.3,31.1L26.3,31.1 M10.3,64l0.1-0.3L10.3,64L10.3,64 M59.3,1.2l-0.2,0L59.3,1.2L59.3,1.2 M53.7,60.6l0.6-0.3
		L53.7,60.6L53.7,60.6 M73.1,40.9l0.4-0.1L73.1,40.9L73.1,40.9 M64.8,119.3l0.1-0.2L64.8,119.3L64.8,119.3 M60.1,61.5L60.1,61.5
		l-0.2,0.2L60.1,61.5 M41.8,65.4l0.3,0L41.8,65.4L41.8,65.4 M11.2,62.8l0.1,0.2L11.2,62.8L11.2,62.8 M48.6,4.5L48,4.7L48.6,4.5
		L48.6,4.5 M113.6,52.4l0.3,0.1L113.6,52.4L113.6,52.4 M58.3,118l0.2-0.2L58.3,118L58.3,118 M95.1,48l0.3,0.1L95.1,48L95.1,48
		 M103.2,57.4l0.2,0.2L103.2,57.4L103.2,57.4 M103.2,35.8l-0.5-0.2L103.2,35.8L103.2,35.8 M66.8,34.1l0.1,0.2L66.8,34.1L66.8,34.1
		 M45.3,96.2l0.2,0.2L45.3,96.2L45.3,96.2 M61,27.3L61,27.3l0.2-0.2L61,27.3 M49.4,8.7l-0.2,0.2L49.4,8.7L49.4,8.7 M35.5,89.8
		l-0.3-0.2L35.5,89.8L35.5,89.8 M130.9,55l0.1-0.2L130.9,55L130.9,55 M126.1,115.2l0,0.1L126.1,115.2L126.1,115.2 M118.5,65.5
		l-0.1,0.3L118.5,65.5L118.5,65.5 M68.6,47.1l0.2-0.2L68.6,47.1L68.6,47.1 M103.8,43.8l0.3,0L103.8,43.8L103.8,43.8 M37.1,18.6
		L37.1,18.6l-0.2-0.1L37.1,18.6 M77.8,27.3L77.7,27L77.8,27.3L77.8,27.3 M112.5,56.3l0.1-0.2L112.5,56.3L112.5,56.3 M58.3,117.7
		l-0.2,0.2L58.3,117.7L58.3,117.7 M55.1,41.1l0.3,0.4L55.1,41.1L55.1,41.1 M55.3,23.9l0.4-0.3L55.3,23.9L55.3,23.9 M58.3,117.4
		l0.3,0L58.3,117.4L58.3,117.4 M46.2,45.9L46.2,45.9l0.5-0.2L46.2,45.9 M56.6,32.9L56.2,33L56.6,32.9L56.6,32.9 M58.7,22.8l-0.1-0.3
		L58.7,22.8L58.7,22.8 M29.7,27.1L29.7,27.1l-0.1,0.2L29.7,27.1 M56.3,21.2l-0.2-0.1L56.3,21.2L56.3,21.2 M27.1,86.4l0.3,0.2
		L27.1,86.4L27.1,86.4 M73.2,5l-0.4,0L73.2,5L73.2,5 M103.1,42.7l0.2,0.2L103.1,42.7L103.1,42.7 M122.2,51.3l0,0.4L122.2,51.3
		L122.2,51.3 M104,43.6l0.1,0.3L104,43.6L104,43.6 M66.4,33L66,33.1L66.4,33L66.4,33 M64.1,26.9l-0.3-0.2L64.1,26.9L64.1,26.9
		 M83.2,73.2l0.5,0L83.2,73.2L83.2,73.2 M56.6,23.8l-0.4-0.1L56.6,23.8L56.6,23.8 M48.1,27.8l0.1,0.2L48.1,27.8L48.1,27.8
		 M90.4,12.7l0.2-0.1L90.4,12.7L90.4,12.7 M102.5,47.2l0.2-0.2L102.5,47.2L102.5,47.2 M123.8,56.4l-0.2-0.2L123.8,56.4L123.8,56.4
		 M59.1,25.3l0.3-0.3L59.1,25.3L59.1,25.3 M35.7,86.8L35.7,86.8L36,87L35.7,86.8 M71.5,41.7l0.4,0.6L71.5,41.7L71.5,41.7 M56.4,23.6
		l-0.1-0.2L56.4,23.6L56.4,23.6 M47.1,46.1l-0.3,0.2L47.1,46.1L47.1,46.1 M51.3,11.7l0.1,0.1L51.3,11.7L51.3,11.7 M84.3,16.8
		L84,16.7L84.3,16.8L84.3,16.8 M66.4,37.7l0.4,0L66.4,37.7L66.4,37.7 M30.7,26.7l-0.2,0L30.7,26.7L30.7,26.7 M56.8,33.4l-0.2,0.3
		L56.8,33.4L56.8,33.4 M97.3,40.4L97.3,40.4l-0.2-0.2L97.3,40.4 M30.6,78.8L30.6,79L30.6,78.8L30.6,78.8 M57.6,25.2l0.2-0.2
		L57.6,25.2L57.6,25.2 M69.9,23.7l-0.2-0.3L69.9,23.7L69.9,23.7 M66.4,34.3l0.2-0.2L66.4,34.3L66.4,34.3 M94.5,42.3l-0.4-0.7
		L94.5,42.3L94.5,42.3 M72,22.8l-0.2-0.2L72,22.8L72,22.8 M71.8,22.9l-0.2-0.2L71.8,22.9L71.8,22.9"/>
</g>
</svg>
