<?xml version="1.0" encoding="utf-8"?>
<!-- Generator: Adobe Illustrator 25.2.1, SVG Export Plug-In . SVG Version: 6.00 Build 0)  -->
<svg version="1.1" baseProfile="tiny" id="Layer_1" xmlns="http://www.w3.org/2000/svg" xmlns:xlink="http://www.w3.org/1999/xlink"
	 x="0px" y="0px" viewBox="0 0 144 144" overflow="visible" xml:space="preserve">
<path fill="#FFFFFF" d="M33.6,115.91c0.01-0.03,0-0.06,0.01-0.09C33.61,115.86,33.61,115.88,33.6,115.91z"/>
<path fill="#086D38" d="M112.63,142.02c0.48-10.52-5.33-22.38-7.11-25.75c13.23-12.73,14.45-25.99,12.88-35.28
	C111.6,40.8,42.46,6.78,34.6,3.03c-0.14-0.07-0.29-0.11-0.43-0.17C32.11,2,29.86,1.78,27.74,2.4c-3.78,1.11-6.3,4.56-6.33,8.69
	c-0.07,7.53,0.18,66.8,22.85,97.4c3.21,4.33,6.86,8.09,11.03,11.04c8.44,5.98,22.62,11.15,42.53,2.48
	c1.96,4.06,4.75,11.09,5.06,16.89L112.63,142.02z"/>
<path fill="#C7E0CD" d="M101.78,105.25c0.02,0.05,0.03,0.08,0.05,0.13c-4.51-10.44-18.78-40.37-49.98-82.02
	C80.85,40.71,127.3,75.09,101.78,105.25z"/>
<path fill="#C7E0CD" d="M31.16,12.06C79.3,71.98,94.42,112.27,94.42,112.27C30.05,141.82,31.16,12.06,31.16,12.06z"/>
<path fill="#086D38" d="M104.09,114.22c0.02-0.23,0.05-0.46,0.06-0.69c-0.01,0.24-0.01,0.48-0.03,0.71
	C104.1,114.24,104.09,114.23,104.09,114.22z"/>
<path fill="#FFFFFF" d="M33.6,116.91c0.01-0.03,0-0.06,0.01-0.09C33.61,116.86,33.61,116.88,33.6,116.91z"/>
</svg>
