<?xml version="1.0" encoding="utf-8"?>
<!-- Generator: Adobe Illustrator 25.2.1, SVG Export Plug-In . SVG Version: 6.00 Build 0)  -->
<svg version="1.1" baseProfile="tiny" id="Layer_1" xmlns="http://www.w3.org/2000/svg" xmlns:xlink="http://www.w3.org/1999/xlink"
	 x="0px" y="0px" viewBox="0 0 206.27 110.13" overflow="visible" xml:space="preserve">
<path fill="#FFFFFF" d="M6.55,70.81c0.01-0.03,0-0.06,0.01-0.09C6.55,70.76,6.55,70.78,6.55,70.81z"/>
<path fill="#FFFFFF" d="M106.04,59.5c0.46,0,0.92,0.01,1.39,0.01l17.05-28.87h-10.44l-10.38,19.62h-0.18l-2.46-19.62H90.87
	l5.41,29.28C99.54,59.7,102.79,59.59,106.04,59.5z"/>
<path fill="#FFFFFF" d="M29.07,56.95c8.75-3.23,15.7-3.81,20.72-1.73l0.57-3.28H31.04l1.56-9.12h16.8l1.44-8.04h-16.8l1.44-8.22
	h17.64l1.5-8.52H27.44l-7.5,42.48h0.92C23.01,59.45,25.89,58.13,29.07,56.95z"/>
<path fill="#FFFFFF" d="M86.63,35.47c-0.36-1.1-0.93-2.07-1.71-2.91s-1.77-1.5-2.97-1.98c-1.2-0.48-2.64-0.72-4.32-0.72
	c-2.08,0-3.92,0.48-5.52,1.44c-1.6,0.96-2.88,2.18-3.84,3.66h-0.12c0.08-0.64,0.17-1.4,0.27-2.28c0.1-0.88,0.17-1.56,0.21-2.04
	h-9.18c-0.08,0.96-0.21,2.04-0.39,3.24s-0.35,2.18-0.51,2.94l-3.84,21.99c0.42,0.51,0.82,1.08,1.19,1.71h8.12l2.88-16.16
	c0.16-0.88,0.41-1.72,0.75-2.51c0.34-0.8,0.78-1.5,1.32-2.09s1.16-1.07,1.86-1.41s1.49-0.51,2.37-0.51c1.48,0,2.51,0.39,3.09,1.17
	c0.58,0.78,0.87,1.73,0.87,2.84c0,0.76-0.1,1.6-0.3,2.51l-2.82,16.16h9.6l3.24-18.36c0.12-0.52,0.2-1.05,0.24-1.59
	s0.06-1.09,0.06-1.65C87.17,37.72,86.99,36.57,86.63,35.47z"/>
<path fill="#63A87C" d="M179.78,31.64l-9.9,18.56l-0.12,1l-3-20.56h-10.5l6.9,29.76l-1.44,3.46c-0.72,1.28-1.47,2.27-2.25,2.97
	s-1.87,1.05-3.27,1.05c-1,0-13.91-2.29-13.91-2.29c-1.98-0.36-3.99-0.61-6-0.85l-6.02-0.72c-8.04-0.92-16.14-1.44-24.27-1.54
	c-8.14,0.09-16.32,0.39-24.42,1.98c-2.01,0.49-4.04,0.88-6.03,1.47c-1.99,0.63-3.98,1.2-5.89,2.11c-0.97,0.41-1.93,0.8-2.86,1.35
	c-0.93,0.52-1.88,0.96-2.75,1.62l-0.35,0.24c-2.37-2.12-6.14-2.88-7.23-3.06c-0.68-5.8-3.57-8.63-6-9.98
	c-10.55-5.88-30.43,5.36-32.67,6.66c-0.04,0.02-0.07,0.05-0.11,0.08c-0.56,0.36-1,0.9-1.22,1.56c-0.4,1.18-0.02,2.48,0.93,3.27
	c1.74,1.44,15.61,12.62,26.67,12.62c1.56,0,3.07-0.22,4.48-0.73c2.85-1.03,6.51-3.68,7.93-10.41c1.29,0.27,3.41,0.89,4.82,1.91
	c-0.35,0.3-0.68,0.65-1,0.99c-0.19,0.2-0.38,0.41-0.56,0.66c-0.18,0.24-0.36,0.45-0.57,0.81c-0.34,0.56-0.27,1.3,0.21,1.79
	c0.57,0.58,1.5,0.6,2.09,0.03l0.25-0.24l0.37-0.36c0.13-0.14,0.29-0.28,0.48-0.42c0.35-0.27,0.66-0.57,1.06-0.81l1.14-0.75L66,74.22
	c0.79-0.46,1.69-0.8,2.55-1.18c0.84-0.4,1.76-0.68,2.67-0.97c1.78-0.65,3.69-1.01,5.54-1.5c1.87-0.42,3.81-0.66,5.7-1
	c4.21-0.56,8.47-0.81,12.74-0.88c-1.52,10.15-5.58,13.48-7.62,14.52c-1.44-4.33-3.94-7.06-7.46-8.1
	c-11.48-3.38-29.54,13.28-30.3,13.99c-0.45,0.42-0.6,1.08-0.37,1.66c0.13,0.32,0.36,0.56,0.64,0.73l0,0
	c0.03,0.01,0.04,0.04,0.07,0.05c0.72,0.37,14.08,7.06,24.75,7.06c3.1,0,5.97-0.56,8.24-2.01c3.2-2.04,4.84-5.51,4.93-10.31
	c2.61-0.99,8.35-4.64,10.16-17.6c2.54,0.01,5.08,0.07,7.62,0.17c7.85,0.5,15.7,1.26,23.51,2.46l5.86,0.93
	c1.95,0.29,3.91,0.58,5.85,0.99c0,0,13.94,2.74,15.83,2.74c1.76,0,3.3-0.22,4.62-0.66c1.32-0.44,2.49-1.08,3.51-1.92
	c1.02-0.84,1.96-1.88,2.82-3.12c0.86-1.24,1.73-2.64,2.61-4.2l19.56-35.38h-10.25V31.64z M53.24,67.04c0.01,0,0.02,0.01,0.04,0.01
	c-3.21-0.83-16.86-1.99-31.97-1.9C36.02,60.3,50.64,53.71,53.24,67.04z M19.29,67.45c22.29-0.96,34.31,2.81,34.31,2.81
	C49.37,92.33,19.29,67.45,19.29,67.45z M55.73,68.15c-0.05-0.05-0.1-0.1-0.15-0.14C55.63,68.06,55.68,68.1,55.73,68.15L55.73,68.15z
	 M76.74,77.63c0.88,0,1.71,0.11,2.49,0.33c2.56,0.75,4.36,2.78,5.48,6.19c-3.44,1.06-13.6,3.76-29.75,4.41
	C60.57,83.99,69.94,77.63,76.74,77.63z M85.01,87.2c-0.24,3.22-1.39,5.47-3.51,6.82c-5.44,3.48-16.5,0.41-24.1-2.57l0,0
	C71.84,90.69,81.12,88.37,85.01,87.2L85.01,87.2z"/>
<path fill="#63A87C" d="M126.33,57.85c1.34,1.14,2.94,2.01,4.8,2.61s3.87,0.9,6.03,0.9c2.88,0,5.45-0.49,7.71-1.47
	c2.26-0.98,4.19-2.31,5.79-3.99c1.6-1.68,2.82-3.64,3.66-5.88s1.26-4.62,1.26-7.14c0-2.04-0.39-3.87-1.17-5.49s-1.85-3-3.21-4.14
	s-2.98-2.01-4.86-2.61c-1.88-0.6-3.92-0.9-6.12-0.9c-2.84,0-5.38,0.5-7.62,1.5c-2.24,1-4.15,2.34-5.73,4.02
	c-1.58,1.68-2.79,3.64-3.63,5.88s-1.26,4.6-1.26,7.08c0,2.04,0.39,3.87,1.17,5.49C123.93,55.33,124.99,56.71,126.33,57.85z
	 M132,43.54c0.4-1.16,0.96-2.18,1.68-3.06c0.72-0.88,1.6-1.58,2.64-2.1c1.04-0.52,2.2-0.78,3.48-0.78c2,0,3.55,0.6,4.65,1.8
	c1.1,1.2,1.65,2.7,1.65,4.5c0,1.28-0.2,2.5-0.6,3.66c-0.4,1.16-0.97,2.18-1.71,3.06s-1.63,1.57-2.67,2.07s-2.2,0.75-3.48,0.75
	c-2,0-3.54-0.59-4.62-1.77S131.4,49,131.4,47.2C131.4,45.92,131.6,44.7,132,43.54z"/>
</svg>
